DBRep_DrawableShape

CASCADE Topology V3, (c) Open Cascade
Locations 4
1
              1               0               0               0 
              0               1               0               0 
              0               0               1               0 
1
              1               0               0               0 
              0               1               0               0 
              0               0               1               0 
2  1 -1 0
2  2 -1 0
Curve2ds 18
8 -19.894798974690232 -19.367225489366493
1 83 19.894798974690232 0 1 
8 -19.894798974690232 -19.367225489366493
1 -17.82762506088163 -92.916104506763546 -0.92050485345241018 0.3907311284893446 
8 -24.299999999999997 -19.299999999999997
1 107.3 0.5275734853100954 1 0 
8 -24.299999999999997 -19.299999999999997
1 -107.3 100.48348237793664 1 0 
1 88 0 0 1 
1 0 0 0 -1 
1 0 0 0 1 
1 0 0 1 0 
8 -47.490651853890746 -46.247766610345195
1 -46.247766610345195 83 -1 0 
8 -47.490651853890746 -46.247766610345195
1 18.556075991552781 -58.118328135055833 0.3907311284893446 0.92050485345241018 
1 -131.59999999999999 129.99999999999903 0 -1 
1 -1.2533973858808167e-11 -129.99999999999903 0 1 
8 19.299999999999997 24.299999999999997
1 1.2428852435135584 107.3 0 -1 
8 19.299999999999997 24.299999999999997
1 -107.3 101.83370366015154 -1 -0 
8 -51.488892779544969 -50.138671497330179
1 -46.152890458948463 -20.118313180418475 -0.92050485345241018 -0.3907311284893446 
8 -51.488892779544969 -50.138671497330179
1 -126.59999999999999 50.344810880606452 0 -1 
1 0 88 1 0 
1 0 0 1 0 
Curves 9
1 17.000000000000007 87.085260369592532 109.75164107665594 0 0.99619469809174743 -0.08715574274763789 
1 41.299999999999997 67.791733020324699 111.43960599914385 1 0 -0 
1 22 67.266167111404997 111.48558705811 0 0.99619469809174743 -0.08715574274763789 
1 -66 67.266167111404997 111.48558705811 1 0 0 
1 17.000000000000007 63.235408662060948 65.413807162299577 0 -0.08715574274763789 -0.99619469809174743 
1 17 58.670627460349003 139.51148242195001 0 0.3090169943750401 -0.95105651629512344 
1 41.299999999999997 67.374491697953445 112.72374274803468 -1 0 -0 
1 22 83.285434588387176 63.754895753227395 0 0.3090169943750401 -0.95105651629512344 
1 22 67.266167111404997 111.48558705811 0 0.08715574274763789 0.99619469809174743 
Polygon3D 0
PolygonOnTriangulations 0
Surfaces 5
1 -66 67.266167111404997 111.48558705811 0 0.08715574274763789 0.99619469809174743 1 0 -0 -0 0.99619469809174743 -0.08715574274763789 
1 17 98.842836729091999 15.874135303580999 1 0 0 0 -0.95105651629512344 -0.3090169943750401 0 0.3090169943750401 -0.95105651629512344 
1 148.59999999999999 98.842836729091999 15.874135303580999 0 -0.95105651629512344 -0.3090169943750401 1 0 0 0 -0.3090169943750401 0.95105651629512344 
1 22 67.266167111404997 111.48558705811 1 0 0 -0 0.08715574274763789 0.99619469809174743 0 -0.99619469809174743 0.08715574274763789 
1 -66 67.266167111404997 111.48558705811 0 0.99619469809174743 -0.08715574274763789 0 0.08715574274763789 0.99619469809174743 1 -0 0 
Triangulations 0

TShapes 28
Ve
1.50000015888219e-07
17 67.266167111405 111.48558705811
0 0

0101101
*
Ve
1.5001363791968e-07
17 67.7917330203383 111.439605999143
0 0

0101101
*
Ed
 1.5e-07 1 1 0
1  1 0 -19.8947989746902 -19.3672254893665
2  1 1 1 -19.8947989746902 -19.3672254893665
2  2 2 2 -19.8947989746902 -19.3672254893665
0

0101000
+28 0 -27 0 *
Ve
1.50000014210855e-07
22 67.7917330203247 111.439605999144
0 0

0101101
*
Ed
 1.5e-07 1 1 0
1  2 0 -24.3 -19.3
2  3 1 1 -24.3 -19.3
2  4 3 2 -24.3 -19.3
0

0101000
+27 0 -25 0 *
Ve
1e-07
22 67.266167111405 111.48558705811
0 0

0101101
*
Ed
 1e-07 1 1 0
1  3 0 0 0.527573485310097
4 C0 1 0 4 0
2  5 1 0 0 0.527573485310097
2  6 4 0 0 0.527573485310097
0

0101000
+23 0 -25 3 *
Ed
 1e-07 1 1 0
1  4 0 83 88
4 C0 5 0 1 0
2  7 5 0 83 88
2  8 1 0 83 88
0

0101000
+28 3 -23 0 *
Wi

0101100
-26 0 -24 0 +22 1 +21 1 *
Fa
0  1e-07 1 1

0101000
+20 0 *
Ve
1.50031973099893e-07
17 67.3744916979563 112.723742748067
0 0

0101101
*
Ed
 1.5e-07 1 1 0
1  5 0 -47.4906518538907 -46.2477666103452
2  9 5 1 -47.4906518538907 -46.2477666103452
2  10 2 2 -47.4906518538907 -46.2477666103452
0

0101000
+18 0 -28 0 *
Ed
 1e-07 1 1 0
1  6 0 28.1662963398181 29.5165176220677
4 C0 2 0 3 0
2  11 3 0 28.1662963398181 29.5165176220677
2  12 2 0 28.1662963398181 29.5165176220677
0

0101000
+18 4 -27 4 *
Wi

0101100
+26 0 +17 0 -16 2 *
Fa
0  1e-07 2 2

0101000
+15 0 *
Ve
1.50000108226645e-07
22 67.3744916979535 112.723742748035
0 0

0101101
*
Ed
 1.5e-07 1 1 0
1  7 0 19.3 24.3
2  13 5 1 19.3 24.3
2  14 3 2 19.3 24.3
0

0101000
+13 0 -18 0 *
Ed
 1.5e-07 1 1 0
1  8 0 -51.488892779545 -50.1386714973302
2  15 4 1 -51.488892779545 -50.1386714973302
2  16 3 2 -51.488892779545 -50.1386714973302
0

0101000
+13 0 -25 0 *
Wi

0101100
+16 2 +12 0 -11 0 +24 0 *
Fa
0  1e-07 3 2

0101000
+10 0 *
Ed
 1e-07 1 1 0
1  9 0 0 1.24288524351346
4 C0 5 0 4 0
2  17 5 0 0 1.24288524351346
2  18 4 0 0 1.24288524351346
0

0101000
+23 0 -13 3 *
Wi

0101100
-8 1 -11 0 +22 1 *
Fa
0  1e-07 4 1

0101000
+7 0 *
Wi

0101100
-21 1 -8 1 -12 0 -17 0 *
Fa
0  1e-07 5 1

0101000
+5 0 *
Sh

0101100
-19 0 -14 0 -9 0 +6 0 -4 0 *
So

0100000
+3 0 *
Co

1100000
+2 0 *

+1 0 