ISO-10303-21;
HEADER;
FILE_DESCRIPTION(('FreeCAD Model'),'2;1');
FILE_NAME('Open CASCADE Shape Model','2026-09-08T08:51:07',('FreeCAD'),(
    'FreeCAD'),'Open CASCADE STEP processor 7.8','FreeCAD','Unknown');
FILE_SCHEMA(('AUTOMOTIVE_DESIGN { 1 0 10303 214 1 1 1 1 }'));
ENDSEC;
DATA;
#1 = APPLICATION_PROTOCOL_DEFINITION('international standard',
  'automotive_design',2000,#2);
#2 = APPLICATION_CONTEXT(
  'core data for automotive mechanical design processes');
#3 = SHAPE_DEFINITION_REPRESENTATION(#4,#10);
#4 = PRODUCT_DEFINITION_SHAPE('','',#5);
#5 = PRODUCT_DEFINITION('design','',#6,#9);
#6 = PRODUCT_DEFINITION_FORMATION('','',#7);
#7 = PRODUCT('Open CASCADE STEP translator 7.8 1',
  'Open CASCADE STEP translator 7.8 1','',(#8));
#8 = PRODUCT_CONTEXT('',#2,'mechanical');
#9 = PRODUCT_DEFINITION_CONTEXT('part definition',#2,'design');
#10 = ADVANCED_BREP_SHAPE_REPRESENTATION('',(#11,#15),#639);
#11 = AXIS2_PLACEMENT_3D('',#12,#13,#14);
#12 = CARTESIAN_POINT('',(0.,0.,0.));
#13 = DIRECTION('',(0.,0.,1.));
#14 = DIRECTION('',(1.,0.,-0.));
#15 = MANIFOLD_SOLID_BREP('',#16);
#16 = CLOSED_SHELL('',(#17,#175,#206,#230,#254,#278,#302,#319,#350,#374,
    #398,#415,#446,#470,#494,#511,#542,#566,#590,#607));
#17 = ADVANCED_FACE('',(#18,#68,#102,#136),#170,.F.);
#18 = FACE_BOUND('',#19,.F.);
#19 = EDGE_LOOP('',(#20,#30,#38,#46,#54,#62));
#20 = ORIENTED_EDGE('',*,*,#21,.T.);
#21 = EDGE_CURVE('',#22,#24,#26,.T.);
#22 = VERTEX_POINT('',#23);
#23 = CARTESIAN_POINT('',(46.5,93.,12.));
#24 = VERTEX_POINT('',#25);
#25 = CARTESIAN_POINT('',(83.5,93.,12.));
#26 = LINE('',#27,#28);
#27 = CARTESIAN_POINT('',(-93.5,93.,12.));
#28 = VECTOR('',#29,1.);
#29 = DIRECTION('',(1.,0.,1.110223024625E-16));
#30 = ORIENTED_EDGE('',*,*,#31,.T.);
#31 = EDGE_CURVE('',#24,#32,#34,.T.);
#32 = VERTEX_POINT('',#33);
#33 = CARTESIAN_POINT('',(83.5,77.,12.));
#34 = LINE('',#35,#36);
#35 = CARTESIAN_POINT('',(83.5,79.234669875936,12.));
#36 = VECTOR('',#37,1.);
#37 = DIRECTION('',(4.884981308351E-32,-1.,-4.4E-16));
#38 = ORIENTED_EDGE('',*,*,#39,.T.);
#39 = EDGE_CURVE('',#32,#40,#42,.T.);
#40 = VERTEX_POINT('',#41);
#41 = CARTESIAN_POINT('',(66.74,77.,12.));
#42 = LINE('',#43,#44);
#43 = CARTESIAN_POINT('',(17.554428037294,77.,12.));
#44 = VECTOR('',#45,1.);
#45 = DIRECTION('',(-1.,2.2E-16,1.089776975375E-16));
#46 = ORIENTED_EDGE('',*,*,#47,.F.);
#47 = EDGE_CURVE('',#48,#40,#50,.T.);
#48 = VERTEX_POINT('',#49);
#49 = CARTESIAN_POINT('',(54.74,77.,12.));
#50 = LINE('',#51,#52);
#51 = CARTESIAN_POINT('',(7.434428037294,77.,12.));
#52 = VECTOR('',#53,1.);
#53 = DIRECTION('',(1.,0.,-1.089776975375E-16));
#54 = ORIENTED_EDGE('',*,*,#55,.T.);
#55 = EDGE_CURVE('',#48,#56,#58,.T.);
#56 = VERTEX_POINT('',#57);
#57 = CARTESIAN_POINT('',(46.5,77.,12.));
#58 = LINE('',#59,#60);
#59 = CARTESIAN_POINT('',(-0.475571962706,77.,12.));
#60 = VECTOR('',#61,1.);
#61 = DIRECTION('',(-1.,2.2E-16,1.089776975375E-16));
#62 = ORIENTED_EDGE('',*,*,#63,.F.);
#63 = EDGE_CURVE('',#22,#56,#64,.T.);
#64 = LINE('',#65,#66);
#65 = CARTESIAN_POINT('',(46.5,79.234669875936,12.));
#66 = VECTOR('',#67,1.);
#67 = DIRECTION('',(4.884981308351E-32,-1.,-4.4E-16));
#68 = FACE_BOUND('',#69,.F.);
#69 = EDGE_LOOP('',(#70,#80,#88,#96));
#70 = ORIENTED_EDGE('',*,*,#71,.T.);
#71 = EDGE_CURVE('',#72,#74,#76,.T.);
#72 = VERTEX_POINT('',#73);
#73 = CARTESIAN_POINT('',(55.3,90.3,12.));
#74 = VERTEX_POINT('',#75);
#75 = CARTESIAN_POINT('',(49.7,90.3,12.));
#76 = LINE('',#77,#78);
#77 = CARTESIAN_POINT('',(9.034428037294,90.3,12.));
#78 = VECTOR('',#79,1.);
#79 = DIRECTION('',(-1.,2.2E-16,1.089776975375E-16));
#80 = ORIENTED_EDGE('',*,*,#81,.T.);
#81 = EDGE_CURVE('',#74,#82,#84,.T.);
#82 = VERTEX_POINT('',#83);
#83 = CARTESIAN_POINT('',(49.7,81.7,12.));
#84 = LINE('',#85,#86);
#85 = CARTESIAN_POINT('',(49.7,81.584669875936,12.));
#86 = VECTOR('',#87,1.);
#87 = DIRECTION('',(-2.2E-16,-1.,-4.4E-16));
#88 = ORIENTED_EDGE('',*,*,#89,.T.);
#89 = EDGE_CURVE('',#82,#90,#92,.T.);
#90 = VERTEX_POINT('',#91);
#91 = CARTESIAN_POINT('',(55.3,81.7,12.));
#92 = LINE('',#93,#94);
#93 = CARTESIAN_POINT('',(11.834428037294,81.7,12.));
#94 = VECTOR('',#95,1.);
#95 = DIRECTION('',(1.,-2.2E-16,-1.089776975375E-16));
#96 = ORIENTED_EDGE('',*,*,#97,.T.);
#97 = EDGE_CURVE('',#90,#72,#98,.T.);
#98 = LINE('',#99,#100);
#99 = CARTESIAN_POINT('',(55.3,85.884669875936,12.));
#100 = VECTOR('',#101,1.);
#101 = DIRECTION('',(2.2E-16,1.,4.4E-16));
#102 = FACE_BOUND('',#103,.F.);
#103 = EDGE_LOOP('',(#104,#114,#122,#130));
#104 = ORIENTED_EDGE('',*,*,#105,.T.);
#105 = EDGE_CURVE('',#106,#108,#110,.T.);
#106 = VERTEX_POINT('',#107);
#107 = CARTESIAN_POINT('',(67.3,90.3,12.));
#108 = VERTEX_POINT('',#109);
#109 = CARTESIAN_POINT('',(61.7,90.3,12.));
#110 = LINE('',#111,#112);
#111 = CARTESIAN_POINT('',(15.034428037294,90.3,12.));
#112 = VECTOR('',#113,1.);
#113 = DIRECTION('',(-1.,2.2E-16,1.089776975375E-16));
#114 = ORIENTED_EDGE('',*,*,#115,.T.);
#115 = EDGE_CURVE('',#108,#116,#118,.T.);
#116 = VERTEX_POINT('',#117);
#117 = CARTESIAN_POINT('',(61.7,81.7,12.));
#118 = LINE('',#119,#120);
#119 = CARTESIAN_POINT('',(61.7,81.584669875936,12.));
#120 = VECTOR('',#121,1.);
#121 = DIRECTION('',(-2.2E-16,-1.,-4.4E-16));
#122 = ORIENTED_EDGE('',*,*,#123,.T.);
#123 = EDGE_CURVE('',#116,#124,#126,.T.);
#124 = VERTEX_POINT('',#125);
#125 = CARTESIAN_POINT('',(67.3,81.7,12.));
#126 = LINE('',#127,#128);
#127 = CARTESIAN_POINT('',(17.834428037294,81.7,12.));
#128 = VECTOR('',#129,1.);
#129 = DIRECTION('',(1.,-2.2E-16,-1.089776975375E-16));
#130 = ORIENTED_EDGE('',*,*,#131,.T.);
#131 = EDGE_CURVE('',#124,#106,#132,.T.);
#132 = LINE('',#133,#134);
#133 = CARTESIAN_POINT('',(67.3,85.884669875936,12.));
#134 = VECTOR('',#135,1.);
#135 = DIRECTION('',(2.2E-16,1.,4.4E-16));
#136 = FACE_BOUND('',#137,.F.);
#137 = EDGE_LOOP('',(#138,#148,#156,#164));
#138 = ORIENTED_EDGE('',*,*,#139,.T.);
#139 = EDGE_CURVE('',#140,#142,#144,.T.);
#140 = VERTEX_POINT('',#141);
#141 = CARTESIAN_POINT('',(79.3,90.3,12.));
#142 = VERTEX_POINT('',#143);
#143 = CARTESIAN_POINT('',(73.7,90.3,12.));
#144 = LINE('',#145,#146);
#145 = CARTESIAN_POINT('',(21.034428037294,90.3,12.));
#146 = VECTOR('',#147,1.);
#147 = DIRECTION('',(-1.,2.2E-16,1.089776975375E-16));
#148 = ORIENTED_EDGE('',*,*,#149,.T.);
#149 = EDGE_CURVE('',#142,#150,#152,.T.);
#150 = VERTEX_POINT('',#151);
#151 = CARTESIAN_POINT('',(73.7,81.7,12.));
#152 = LINE('',#153,#154);
#153 = CARTESIAN_POINT('',(73.7,81.584669875936,12.));
#154 = VECTOR('',#155,1.);
#155 = DIRECTION('',(-2.2E-16,-1.,-4.4E-16));
#156 = ORIENTED_EDGE('',*,*,#157,.T.);
#157 = EDGE_CURVE('',#150,#158,#160,.T.);
#158 = VERTEX_POINT('',#159);
#159 = CARTESIAN_POINT('',(79.3,81.7,12.));
#160 = LINE('',#161,#162);
#161 = CARTESIAN_POINT('',(23.834428037294,81.7,12.));
#162 = VECTOR('',#163,1.);
#163 = DIRECTION('',(1.,-2.2E-16,-1.089776975375E-16));
#164 = ORIENTED_EDGE('',*,*,#165,.T.);
#165 = EDGE_CURVE('',#158,#140,#166,.T.);
#166 = LINE('',#167,#168);
#167 = CARTESIAN_POINT('',(79.3,85.884669875936,12.));
#168 = VECTOR('',#169,1.);
#169 = DIRECTION('',(2.2E-16,1.,4.4E-16));
#170 = PLANE('',#171);
#171 = AXIS2_PLACEMENT_3D('',#172,#173,#174);
#172 = CARTESIAN_POINT('',(-31.63114392541,81.469339751872,12.));
#173 = DIRECTION('',(-1.089776975375E-16,4.4E-16,-1.));
#174 = DIRECTION('',(-4.884981308351E-32,1.,4.4E-16));
#175 = ADVANCED_FACE('',(#176),#201,.F.);
#176 = FACE_BOUND('',#177,.F.);
#177 = EDGE_LOOP('',(#178,#179,#187,#195));
#178 = ORIENTED_EDGE('',*,*,#21,.F.);
#179 = ORIENTED_EDGE('',*,*,#180,.T.);
#180 = EDGE_CURVE('',#22,#181,#183,.T.);
#181 = VERTEX_POINT('',#182);
#182 = CARTESIAN_POINT('',(46.5,93.,5.684341886081E-14));
#183 = LINE('',#184,#185);
#184 = CARTESIAN_POINT('',(46.5,93.,35.));
#185 = VECTOR('',#186,1.);
#186 = DIRECTION('',(1.110223024625E-16,0.,-1.));
#187 = ORIENTED_EDGE('',*,*,#188,.T.);
#188 = EDGE_CURVE('',#181,#189,#191,.T.);
#189 = VERTEX_POINT('',#190);
#190 = CARTESIAN_POINT('',(83.5,93.,5.684341886081E-14));
#191 = LINE('',#192,#193);
#192 = CARTESIAN_POINT('',(-93.5,93.,2.84217094304E-14));
#193 = VECTOR('',#194,1.);
#194 = DIRECTION('',(1.,0.,1.110223024625E-16));
#195 = ORIENTED_EDGE('',*,*,#196,.F.);
#196 = EDGE_CURVE('',#24,#189,#197,.T.);
#197 = LINE('',#198,#199);
#198 = CARTESIAN_POINT('',(83.5,93.,35.));
#199 = VECTOR('',#200,1.);
#200 = DIRECTION('',(1.110223024625E-16,0.,-1.));
#201 = PLANE('',#202);
#202 = AXIS2_PLACEMENT_3D('',#203,#204,#205);
#203 = CARTESIAN_POINT('',(-93.5,93.,12.));
#204 = DIRECTION('',(-2.2E-16,-1.,-2.442490654175E-32));
#205 = DIRECTION('',(1.,-2.2E-16,-1.089776975375E-16));
#206 = ADVANCED_FACE('',(#207),#225,.F.);
#207 = FACE_BOUND('',#208,.F.);
#208 = EDGE_LOOP('',(#209,#210,#211,#219));
#209 = ORIENTED_EDGE('',*,*,#180,.F.);
#210 = ORIENTED_EDGE('',*,*,#63,.T.);
#211 = ORIENTED_EDGE('',*,*,#212,.T.);
#212 = EDGE_CURVE('',#56,#213,#215,.T.);
#213 = VERTEX_POINT('',#214);
#214 = CARTESIAN_POINT('',(46.5,77.,5.684341886081E-14));
#215 = LINE('',#216,#217);
#216 = CARTESIAN_POINT('',(46.5,77.,35.));
#217 = VECTOR('',#218,1.);
#218 = DIRECTION('',(1.110223024625E-16,0.,-1.));
#219 = ORIENTED_EDGE('',*,*,#220,.F.);
#220 = EDGE_CURVE('',#181,#213,#221,.T.);
#221 = LINE('',#222,#223);
#222 = CARTESIAN_POINT('',(46.5,78.805008672715,5.684341886081E-14));
#223 = VECTOR('',#224,1.);
#224 = DIRECTION('',(4.662936703426E-32,-1.,-4.2E-16));
#225 = PLANE('',#226);
#226 = AXIS2_PLACEMENT_3D('',#227,#228,#229);
#227 = CARTESIAN_POINT('',(46.5,77.,35.));
#228 = DIRECTION('',(1.,0.,1.110223024625E-16));
#229 = DIRECTION('',(1.110223024625E-16,0.,-1.));
#230 = ADVANCED_FACE('',(#231),#249,.T.);
#231 = FACE_BOUND('',#232,.T.);
#232 = EDGE_LOOP('',(#233,#234,#235,#243));
#233 = ORIENTED_EDGE('',*,*,#55,.T.);
#234 = ORIENTED_EDGE('',*,*,#212,.T.);
#235 = ORIENTED_EDGE('',*,*,#236,.F.);
#236 = EDGE_CURVE('',#237,#213,#239,.T.);
#237 = VERTEX_POINT('',#238);
#238 = CARTESIAN_POINT('',(54.74,77.,2.84217094304E-14));
#239 = LINE('',#240,#241);
#240 = CARTESIAN_POINT('',(-0.475571962706,77.,2.533949561636E-14));
#241 = VECTOR('',#242,1.);
#242 = DIRECTION('',(-1.,2.2E-16,1.089776975375E-16));
#243 = ORIENTED_EDGE('',*,*,#244,.F.);
#244 = EDGE_CURVE('',#48,#237,#245,.T.);
#245 = LINE('',#246,#247);
#246 = CARTESIAN_POINT('',(54.74,77.,13.));
#247 = VECTOR('',#248,1.);
#248 = DIRECTION('',(1.110223024625E-16,0.,-1.));
#249 = PLANE('',#250);
#250 = AXIS2_PLACEMENT_3D('',#251,#252,#253);
#251 = CARTESIAN_POINT('',(30.68,77.,13.));
#252 = DIRECTION('',(-2.2E-16,-1.,-2.442490654175E-32));
#253 = DIRECTION('',(1.,-2.2E-16,-1.089776975375E-16));
#254 = ADVANCED_FACE('',(#255),#273,.F.);
#255 = FACE_BOUND('',#256,.F.);
#256 = EDGE_LOOP('',(#257,#258,#259,#267));
#257 = ORIENTED_EDGE('',*,*,#244,.F.);
#258 = ORIENTED_EDGE('',*,*,#47,.T.);
#259 = ORIENTED_EDGE('',*,*,#260,.T.);
#260 = EDGE_CURVE('',#40,#261,#263,.T.);
#261 = VERTEX_POINT('',#262);
#262 = CARTESIAN_POINT('',(66.74,77.,2.84217094304E-14));
#263 = LINE('',#264,#265);
#264 = CARTESIAN_POINT('',(66.74,77.,13.));
#265 = VECTOR('',#266,1.);
#266 = DIRECTION('',(1.110223024625E-16,0.,-1.));
#267 = ORIENTED_EDGE('',*,*,#268,.F.);
#268 = EDGE_CURVE('',#237,#261,#269,.T.);
#269 = LINE('',#270,#271);
#270 = CARTESIAN_POINT('',(8.688423975598,77.,2.84217094304E-14));
#271 = VECTOR('',#272,1.);
#272 = DIRECTION('',(1.,0.,1.110223024625E-16));
#273 = PLANE('',#274);
#274 = AXIS2_PLACEMENT_3D('',#275,#276,#277);
#275 = CARTESIAN_POINT('',(46.5,77.,35.));
#276 = DIRECTION('',(0.,1.,0.));
#277 = DIRECTION('',(1.,0.,1.110223024625E-16));
#278 = ADVANCED_FACE('',(#279),#297,.T.);
#279 = FACE_BOUND('',#280,.T.);
#280 = EDGE_LOOP('',(#281,#289,#290,#291));
#281 = ORIENTED_EDGE('',*,*,#282,.F.);
#282 = EDGE_CURVE('',#32,#283,#285,.T.);
#283 = VERTEX_POINT('',#284);
#284 = CARTESIAN_POINT('',(83.5,77.,0.));
#285 = LINE('',#286,#287);
#286 = CARTESIAN_POINT('',(83.5,77.,35.));
#287 = VECTOR('',#288,1.);
#288 = DIRECTION('',(1.110223024625E-16,0.,-1.));
#289 = ORIENTED_EDGE('',*,*,#39,.T.);
#290 = ORIENTED_EDGE('',*,*,#260,.T.);
#291 = ORIENTED_EDGE('',*,*,#292,.F.);
#292 = EDGE_CURVE('',#283,#261,#293,.T.);
#293 = LINE('',#294,#295);
#294 = CARTESIAN_POINT('',(17.554428037294,77.,2.378122772976E-14));
#295 = VECTOR('',#296,1.);
#296 = DIRECTION('',(-1.,2.2E-16,1.089776975375E-16));
#297 = PLANE('',#298);
#298 = AXIS2_PLACEMENT_3D('',#299,#300,#301);
#299 = CARTESIAN_POINT('',(66.74,77.,13.));
#300 = DIRECTION('',(-2.2E-16,-1.,-2.442490654175E-32));
#301 = DIRECTION('',(1.,-2.2E-16,-1.089776975375E-16));
#302 = ADVANCED_FACE('',(#303),#314,.T.);
#303 = FACE_BOUND('',#304,.T.);
#304 = EDGE_LOOP('',(#305,#306,#307,#308));
#305 = ORIENTED_EDGE('',*,*,#196,.F.);
#306 = ORIENTED_EDGE('',*,*,#31,.T.);
#307 = ORIENTED_EDGE('',*,*,#282,.T.);
#308 = ORIENTED_EDGE('',*,*,#309,.F.);
#309 = EDGE_CURVE('',#189,#283,#310,.T.);
#310 = LINE('',#311,#312);
#311 = CARTESIAN_POINT('',(83.5,78.805008672715,5.684341886081E-14));
#312 = VECTOR('',#313,1.);
#313 = DIRECTION('',(4.662936703426E-32,-1.,-4.2E-16));
#314 = PLANE('',#315);
#315 = AXIS2_PLACEMENT_3D('',#316,#317,#318);
#316 = CARTESIAN_POINT('',(83.5,77.,35.));
#317 = DIRECTION('',(1.,0.,1.110223024625E-16));
#318 = DIRECTION('',(1.110223024625E-16,0.,-1.));
#319 = ADVANCED_FACE('',(#320),#345,.T.);
#320 = FACE_BOUND('',#321,.T.);
#321 = EDGE_LOOP('',(#322,#323,#331,#339));
#322 = ORIENTED_EDGE('',*,*,#71,.T.);
#323 = ORIENTED_EDGE('',*,*,#324,.T.);
#324 = EDGE_CURVE('',#74,#325,#327,.T.);
#325 = VERTEX_POINT('',#326);
#326 = CARTESIAN_POINT('',(49.7,90.3,5.684341886081E-14));
#327 = LINE('',#328,#329);
#328 = CARTESIAN_POINT('',(49.7,90.3,13.));
#329 = VECTOR('',#330,1.);
#330 = DIRECTION('',(1.110223024625E-16,0.,-1.));
#331 = ORIENTED_EDGE('',*,*,#332,.F.);
#332 = EDGE_CURVE('',#333,#325,#335,.T.);
#333 = VERTEX_POINT('',#334);
#334 = CARTESIAN_POINT('',(55.3,90.3,5.684341886081E-14));
#335 = LINE('',#336,#337);
#336 = CARTESIAN_POINT('',(10.288423975598,90.3,4.018453922913E-14));
#337 = VECTOR('',#338,1.);
#338 = DIRECTION('',(-1.,2.2E-16,-1.110223024625E-16));
#339 = ORIENTED_EDGE('',*,*,#340,.F.);
#340 = EDGE_CURVE('',#72,#333,#341,.T.);
#341 = LINE('',#342,#343);
#342 = CARTESIAN_POINT('',(55.3,90.3,13.));
#343 = VECTOR('',#344,1.);
#344 = DIRECTION('',(1.110223024625E-16,0.,-1.));
#345 = PLANE('',#346);
#346 = AXIS2_PLACEMENT_3D('',#347,#348,#349);
#347 = CARTESIAN_POINT('',(49.7,90.3,13.));
#348 = DIRECTION('',(-2.2E-16,-1.,-2.442490654175E-32));
#349 = DIRECTION('',(1.,-2.2E-16,-1.089776975375E-16));
#350 = ADVANCED_FACE('',(#351),#369,.T.);
#351 = FACE_BOUND('',#352,.T.);
#352 = EDGE_LOOP('',(#353,#354,#355,#363));
#353 = ORIENTED_EDGE('',*,*,#97,.T.);
#354 = ORIENTED_EDGE('',*,*,#340,.T.);
#355 = ORIENTED_EDGE('',*,*,#356,.F.);
#356 = EDGE_CURVE('',#357,#333,#359,.T.);
#357 = VERTEX_POINT('',#358);
#358 = CARTESIAN_POINT('',(55.3,81.7,5.684341886081E-14));
#359 = LINE('',#360,#361);
#360 = CARTESIAN_POINT('',(55.3,85.455008672715,4.316182803683E-14));
#361 = VECTOR('',#362,1.);
#362 = DIRECTION('',(2.2E-16,1.,4.2E-16));
#363 = ORIENTED_EDGE('',*,*,#364,.F.);
#364 = EDGE_CURVE('',#90,#357,#365,.T.);
#365 = LINE('',#366,#367);
#366 = CARTESIAN_POINT('',(55.3,81.7,13.));
#367 = VECTOR('',#368,1.);
#368 = DIRECTION('',(1.110223024625E-16,0.,-1.));
#369 = PLANE('',#370);
#370 = AXIS2_PLACEMENT_3D('',#371,#372,#373);
#371 = CARTESIAN_POINT('',(55.3,90.3,13.));
#372 = DIRECTION('',(-1.,2.2E-16,-1.110223024625E-16));
#373 = DIRECTION('',(-2.2E-16,-1.,-4.4E-16));
#374 = ADVANCED_FACE('',(#375),#393,.T.);
#375 = FACE_BOUND('',#376,.T.);
#376 = EDGE_LOOP('',(#377,#378,#386,#392));
#377 = ORIENTED_EDGE('',*,*,#81,.T.);
#378 = ORIENTED_EDGE('',*,*,#379,.T.);
#379 = EDGE_CURVE('',#82,#380,#382,.T.);
#380 = VERTEX_POINT('',#381);
#381 = CARTESIAN_POINT('',(49.7,81.7,5.684341886081E-14));
#382 = LINE('',#383,#384);
#383 = CARTESIAN_POINT('',(49.7,81.7,13.));
#384 = VECTOR('',#385,1.);
#385 = DIRECTION('',(1.110223024625E-16,0.,-1.));
#386 = ORIENTED_EDGE('',*,*,#387,.F.);
#387 = EDGE_CURVE('',#325,#380,#388,.T.);
#388 = LINE('',#389,#390);
#389 = CARTESIAN_POINT('',(49.7,81.155008672715,4.076010314304E-14));
#390 = VECTOR('',#391,1.);
#391 = DIRECTION('',(-2.2E-16,-1.,-4.2E-16));
#392 = ORIENTED_EDGE('',*,*,#324,.F.);
#393 = PLANE('',#394);
#394 = AXIS2_PLACEMENT_3D('',#395,#396,#397);
#395 = CARTESIAN_POINT('',(49.7,81.7,13.));
#396 = DIRECTION('',(1.,-2.2E-16,1.110223024625E-16));
#397 = DIRECTION('',(2.2E-16,1.,4.4E-16));
#398 = ADVANCED_FACE('',(#399),#410,.T.);
#399 = FACE_BOUND('',#400,.T.);
#400 = EDGE_LOOP('',(#401,#402,#403,#409));
#401 = ORIENTED_EDGE('',*,*,#89,.T.);
#402 = ORIENTED_EDGE('',*,*,#364,.T.);
#403 = ORIENTED_EDGE('',*,*,#404,.F.);
#404 = EDGE_CURVE('',#380,#357,#405,.T.);
#405 = LINE('',#406,#407);
#406 = CARTESIAN_POINT('',(13.088423975598,81.7,3.692540167603E-14));
#407 = VECTOR('',#408,1.);
#408 = DIRECTION('',(1.,-2.2E-16,1.110223024625E-16));
#409 = ORIENTED_EDGE('',*,*,#379,.F.);
#410 = PLANE('',#411);
#411 = AXIS2_PLACEMENT_3D('',#412,#413,#414);
#412 = CARTESIAN_POINT('',(55.3,81.7,13.));
#413 = DIRECTION('',(2.2E-16,1.,2.442490654175E-32));
#414 = DIRECTION('',(-1.,2.2E-16,1.089776975375E-16));
#415 = ADVANCED_FACE('',(#416),#441,.T.);
#416 = FACE_BOUND('',#417,.T.);
#417 = EDGE_LOOP('',(#418,#419,#427,#435));
#418 = ORIENTED_EDGE('',*,*,#105,.T.);
#419 = ORIENTED_EDGE('',*,*,#420,.T.);
#420 = EDGE_CURVE('',#108,#421,#423,.T.);
#421 = VERTEX_POINT('',#422);
#422 = CARTESIAN_POINT('',(61.7,90.3,5.684341886081E-14));
#423 = LINE('',#424,#425);
#424 = CARTESIAN_POINT('',(61.7,90.3,13.));
#425 = VECTOR('',#426,1.);
#426 = DIRECTION('',(1.110223024625E-16,0.,-1.));
#427 = ORIENTED_EDGE('',*,*,#428,.F.);
#428 = EDGE_CURVE('',#429,#421,#431,.T.);
#429 = VERTEX_POINT('',#430);
#430 = CARTESIAN_POINT('',(67.3,90.3,5.684341886081E-14));
#431 = LINE('',#432,#433);
#432 = CARTESIAN_POINT('',(16.288423975598,90.3,4.085067304391E-14));
#433 = VECTOR('',#434,1.);
#434 = DIRECTION('',(-1.,2.2E-16,-1.110223024625E-16));
#435 = ORIENTED_EDGE('',*,*,#436,.F.);
#436 = EDGE_CURVE('',#106,#429,#437,.T.);
#437 = LINE('',#438,#439);
#438 = CARTESIAN_POINT('',(67.3,90.3,13.));
#439 = VECTOR('',#440,1.);
#440 = DIRECTION('',(1.110223024625E-16,0.,-1.));
#441 = PLANE('',#442);
#442 = AXIS2_PLACEMENT_3D('',#443,#444,#445);
#443 = CARTESIAN_POINT('',(61.7,90.3,13.));
#444 = DIRECTION('',(-2.2E-16,-1.,-2.442490654175E-32));
#445 = DIRECTION('',(1.,-2.2E-16,-1.089776975375E-16));
#446 = ADVANCED_FACE('',(#447),#465,.T.);
#447 = FACE_BOUND('',#448,.T.);
#448 = EDGE_LOOP('',(#449,#450,#451,#459));
#449 = ORIENTED_EDGE('',*,*,#131,.T.);
#450 = ORIENTED_EDGE('',*,*,#436,.T.);
#451 = ORIENTED_EDGE('',*,*,#452,.F.);
#452 = EDGE_CURVE('',#453,#429,#455,.T.);
#453 = VERTEX_POINT('',#454);
#454 = CARTESIAN_POINT('',(67.3,81.7,5.684341886081E-14));
#455 = LINE('',#456,#457);
#456 = CARTESIAN_POINT('',(67.3,85.455008672715,4.449409566638E-14));
#457 = VECTOR('',#458,1.);
#458 = DIRECTION('',(2.2E-16,1.,4.2E-16));
#459 = ORIENTED_EDGE('',*,*,#460,.F.);
#460 = EDGE_CURVE('',#124,#453,#461,.T.);
#461 = LINE('',#462,#463);
#462 = CARTESIAN_POINT('',(67.3,81.7,13.));
#463 = VECTOR('',#464,1.);
#464 = DIRECTION('',(1.110223024625E-16,0.,-1.));
#465 = PLANE('',#466);
#466 = AXIS2_PLACEMENT_3D('',#467,#468,#469);
#467 = CARTESIAN_POINT('',(67.3,90.3,13.));
#468 = DIRECTION('',(-1.,2.2E-16,-1.110223024625E-16));
#469 = DIRECTION('',(-2.2E-16,-1.,-4.4E-16));
#470 = ADVANCED_FACE('',(#471),#489,.T.);
#471 = FACE_BOUND('',#472,.T.);
#472 = EDGE_LOOP('',(#473,#474,#482,#488));
#473 = ORIENTED_EDGE('',*,*,#115,.T.);
#474 = ORIENTED_EDGE('',*,*,#475,.T.);
#475 = EDGE_CURVE('',#116,#476,#478,.T.);
#476 = VERTEX_POINT('',#477);
#477 = CARTESIAN_POINT('',(61.7,81.7,5.684341886081E-14));
#478 = LINE('',#479,#480);
#479 = CARTESIAN_POINT('',(61.7,81.7,13.));
#480 = VECTOR('',#481,1.);
#481 = DIRECTION('',(1.110223024625E-16,0.,-1.));
#482 = ORIENTED_EDGE('',*,*,#483,.F.);
#483 = EDGE_CURVE('',#421,#476,#484,.T.);
#484 = LINE('',#485,#486);
#485 = CARTESIAN_POINT('',(61.7,81.155008672715,4.209237077259E-14));
#486 = VECTOR('',#487,1.);
#487 = DIRECTION('',(-2.2E-16,-1.,-4.2E-16));
#488 = ORIENTED_EDGE('',*,*,#420,.F.);
#489 = PLANE('',#490);
#490 = AXIS2_PLACEMENT_3D('',#491,#492,#493);
#491 = CARTESIAN_POINT('',(61.7,81.7,13.));
#492 = DIRECTION('',(1.,-2.2E-16,1.110223024625E-16));
#493 = DIRECTION('',(2.2E-16,1.,4.4E-16));
#494 = ADVANCED_FACE('',(#495),#506,.T.);
#495 = FACE_BOUND('',#496,.T.);
#496 = EDGE_LOOP('',(#497,#498,#499,#505));
#497 = ORIENTED_EDGE('',*,*,#123,.T.);
#498 = ORIENTED_EDGE('',*,*,#460,.T.);
#499 = ORIENTED_EDGE('',*,*,#500,.F.);
#500 = EDGE_CURVE('',#476,#453,#501,.T.);
#501 = LINE('',#502,#503);
#502 = CARTESIAN_POINT('',(19.088423975598,81.7,3.75915354908E-14));
#503 = VECTOR('',#504,1.);
#504 = DIRECTION('',(1.,-2.2E-16,1.110223024625E-16));
#505 = ORIENTED_EDGE('',*,*,#475,.F.);
#506 = PLANE('',#507);
#507 = AXIS2_PLACEMENT_3D('',#508,#509,#510);
#508 = CARTESIAN_POINT('',(67.3,81.7,13.));
#509 = DIRECTION('',(2.2E-16,1.,2.442490654175E-32));
#510 = DIRECTION('',(-1.,2.2E-16,1.089776975375E-16));
#511 = ADVANCED_FACE('',(#512),#537,.T.);
#512 = FACE_BOUND('',#513,.T.);
#513 = EDGE_LOOP('',(#514,#515,#523,#531));
#514 = ORIENTED_EDGE('',*,*,#139,.T.);
#515 = ORIENTED_EDGE('',*,*,#516,.T.);
#516 = EDGE_CURVE('',#142,#517,#519,.T.);
#517 = VERTEX_POINT('',#518);
#518 = CARTESIAN_POINT('',(73.7,90.3,5.684341886081E-14));
#519 = LINE('',#520,#521);
#520 = CARTESIAN_POINT('',(73.7,90.3,13.));
#521 = VECTOR('',#522,1.);
#522 = DIRECTION('',(1.110223024625E-16,0.,-1.));
#523 = ORIENTED_EDGE('',*,*,#524,.F.);
#524 = EDGE_CURVE('',#525,#517,#527,.T.);
#525 = VERTEX_POINT('',#526);
#526 = CARTESIAN_POINT('',(79.3,90.3,5.684341886081E-14));
#527 = LINE('',#528,#529);
#528 = CARTESIAN_POINT('',(22.288423975598,90.3,4.151680685868E-14));
#529 = VECTOR('',#530,1.);
#530 = DIRECTION('',(-1.,2.2E-16,-1.110223024625E-16));
#531 = ORIENTED_EDGE('',*,*,#532,.F.);
#532 = EDGE_CURVE('',#140,#525,#533,.T.);
#533 = LINE('',#534,#535);
#534 = CARTESIAN_POINT('',(79.3,90.3,13.));
#535 = VECTOR('',#536,1.);
#536 = DIRECTION('',(1.110223024625E-16,0.,-1.));
#537 = PLANE('',#538);
#538 = AXIS2_PLACEMENT_3D('',#539,#540,#541);
#539 = CARTESIAN_POINT('',(73.7,90.3,13.));
#540 = DIRECTION('',(-2.2E-16,-1.,-2.442490654175E-32));
#541 = DIRECTION('',(1.,-2.2E-16,-1.089776975375E-16));
#542 = ADVANCED_FACE('',(#543),#561,.T.);
#543 = FACE_BOUND('',#544,.T.);
#544 = EDGE_LOOP('',(#545,#546,#547,#555));
#545 = ORIENTED_EDGE('',*,*,#165,.T.);
#546 = ORIENTED_EDGE('',*,*,#532,.T.);
#547 = ORIENTED_EDGE('',*,*,#548,.F.);
#548 = EDGE_CURVE('',#549,#525,#551,.T.);
#549 = VERTEX_POINT('',#550);
#550 = CARTESIAN_POINT('',(79.3,81.7,5.684341886081E-14));
#551 = LINE('',#552,#553);
#552 = CARTESIAN_POINT('',(79.3,85.455008672715,4.582636329593E-14));
#553 = VECTOR('',#554,1.);
#554 = DIRECTION('',(2.2E-16,1.,4.2E-16));
#555 = ORIENTED_EDGE('',*,*,#556,.F.);
#556 = EDGE_CURVE('',#158,#549,#557,.T.);
#557 = LINE('',#558,#559);
#558 = CARTESIAN_POINT('',(79.3,81.7,13.));
#559 = VECTOR('',#560,1.);
#560 = DIRECTION('',(1.110223024625E-16,0.,-1.));
#561 = PLANE('',#562);
#562 = AXIS2_PLACEMENT_3D('',#563,#564,#565);
#563 = CARTESIAN_POINT('',(79.3,90.3,13.));
#564 = DIRECTION('',(-1.,2.2E-16,-1.110223024625E-16));
#565 = DIRECTION('',(-2.2E-16,-1.,-4.4E-16));
#566 = ADVANCED_FACE('',(#567),#585,.T.);
#567 = FACE_BOUND('',#568,.T.);
#568 = EDGE_LOOP('',(#569,#570,#578,#584));
#569 = ORIENTED_EDGE('',*,*,#149,.T.);
#570 = ORIENTED_EDGE('',*,*,#571,.T.);
#571 = EDGE_CURVE('',#150,#572,#574,.T.);
#572 = VERTEX_POINT('',#573);
#573 = CARTESIAN_POINT('',(73.7,81.7,5.684341886081E-14));
#574 = LINE('',#575,#576);
#575 = CARTESIAN_POINT('',(73.7,81.7,13.));
#576 = VECTOR('',#577,1.);
#577 = DIRECTION('',(1.110223024625E-16,0.,-1.));
#578 = ORIENTED_EDGE('',*,*,#579,.F.);
#579 = EDGE_CURVE('',#517,#572,#580,.T.);
#580 = LINE('',#581,#582);
#581 = CARTESIAN_POINT('',(73.7,81.155008672715,4.342463840214E-14));
#582 = VECTOR('',#583,1.);
#583 = DIRECTION('',(-2.2E-16,-1.,-4.2E-16));
#584 = ORIENTED_EDGE('',*,*,#516,.F.);
#585 = PLANE('',#586);
#586 = AXIS2_PLACEMENT_3D('',#587,#588,#589);
#587 = CARTESIAN_POINT('',(73.7,81.7,13.));
#588 = DIRECTION('',(1.,-2.2E-16,1.110223024625E-16));
#589 = DIRECTION('',(2.2E-16,1.,4.4E-16));
#590 = ADVANCED_FACE('',(#591),#602,.T.);
#591 = FACE_BOUND('',#592,.T.);
#592 = EDGE_LOOP('',(#593,#594,#595,#601));
#593 = ORIENTED_EDGE('',*,*,#157,.T.);
#594 = ORIENTED_EDGE('',*,*,#556,.T.);
#595 = ORIENTED_EDGE('',*,*,#596,.F.);
#596 = EDGE_CURVE('',#572,#549,#597,.T.);
#597 = LINE('',#598,#599);
#598 = CARTESIAN_POINT('',(25.088423975598,81.7,3.825766930558E-14));
#599 = VECTOR('',#600,1.);
#600 = DIRECTION('',(1.,-2.2E-16,1.110223024625E-16));
#601 = ORIENTED_EDGE('',*,*,#571,.F.);
#602 = PLANE('',#603);
#603 = AXIS2_PLACEMENT_3D('',#604,#605,#606);
#604 = CARTESIAN_POINT('',(79.3,81.7,13.));
#605 = DIRECTION('',(2.2E-16,1.,2.442490654175E-32));
#606 = DIRECTION('',(-1.,2.2E-16,1.089776975375E-16));
#607 = ADVANCED_FACE('',(#608,#616,#622,#628),#634,.T.);
#608 = FACE_BOUND('',#609,.T.);
#609 = EDGE_LOOP('',(#610,#611,#612,#613,#614,#615));
#610 = ORIENTED_EDGE('',*,*,#188,.T.);
#611 = ORIENTED_EDGE('',*,*,#309,.T.);
#612 = ORIENTED_EDGE('',*,*,#292,.T.);
#613 = ORIENTED_EDGE('',*,*,#268,.F.);
#614 = ORIENTED_EDGE('',*,*,#236,.T.);
#615 = ORIENTED_EDGE('',*,*,#220,.F.);
#616 = FACE_BOUND('',#617,.T.);
#617 = EDGE_LOOP('',(#618,#619,#620,#621));
#618 = ORIENTED_EDGE('',*,*,#332,.T.);
#619 = ORIENTED_EDGE('',*,*,#387,.T.);
#620 = ORIENTED_EDGE('',*,*,#404,.T.);
#621 = ORIENTED_EDGE('',*,*,#356,.T.);
#622 = FACE_BOUND('',#623,.T.);
#623 = EDGE_LOOP('',(#624,#625,#626,#627));
#624 = ORIENTED_EDGE('',*,*,#428,.T.);
#625 = ORIENTED_EDGE('',*,*,#483,.T.);
#626 = ORIENTED_EDGE('',*,*,#500,.T.);
#627 = ORIENTED_EDGE('',*,*,#452,.T.);
#628 = FACE_BOUND('',#629,.T.);
#629 = EDGE_LOOP('',(#630,#631,#632,#633));
#630 = ORIENTED_EDGE('',*,*,#524,.T.);
#631 = ORIENTED_EDGE('',*,*,#579,.T.);
#632 = ORIENTED_EDGE('',*,*,#596,.T.);
#633 = ORIENTED_EDGE('',*,*,#548,.T.);
#634 = PLANE('',#635);
#635 = AXIS2_PLACEMENT_3D('',#636,#637,#638);
#636 = CARTESIAN_POINT('',(-29.1231520488,80.610017345431,
    3.200897531523E-14));
#637 = DIRECTION('',(1.110223024625E-16,4.2E-16,-1.));
#638 = DIRECTION('',(-4.662936703426E-32,1.,4.2E-16));
#639 = ( GEOMETRIC_REPRESENTATION_CONTEXT(3) 
GLOBAL_UNCERTAINTY_ASSIGNED_CONTEXT((#643)) GLOBAL_UNIT_ASSIGNED_CONTEXT
((#640,#641,#642)) REPRESENTATION_CONTEXT('Context #1',
  '3D Context with UNIT and UNCERTAINTY') );
#640 = ( LENGTH_UNIT() NAMED_UNIT(*) SI_UNIT(.MILLI.,.METRE.) );
#641 = ( NAMED_UNIT(*) PLANE_ANGLE_UNIT() SI_UNIT($,.RADIAN.) );
#642 = ( NAMED_UNIT(*) SI_UNIT($,.STERADIAN.) SOLID_ANGLE_UNIT() );
#643 = UNCERTAINTY_MEASURE_WITH_UNIT(LENGTH_MEASURE(1.E-04),#640,
  'distance_accuracy_value','confusion accuracy');
#644 = PRODUCT_RELATED_PRODUCT_CATEGORY('part',$,(#7));
ENDSEC;
END-ISO-10303-21;
