ISO-10303-21;
HEADER;
FILE_DESCRIPTION(('FreeCAD Model'),'2;1');
FILE_NAME('Open CASCADE Shape Model','2026-09-08T08:04:37',('FreeCAD'),(
    'FreeCAD'),'Open CASCADE STEP processor 7.8','FreeCAD','Unknown');
FILE_SCHEMA(('AUTOMOTIVE_DESIGN { 1 0 10303 214 1 1 1 1 }'));
ENDSEC;
DATA;
#1 = APPLICATION_PROTOCOL_DEFINITION('international standard',
  'automotive_design',2000,#2);
#2 = APPLICATION_CONTEXT(
  'core data for automotive mechanical design processes');
#3 = SHAPE_DEFINITION_REPRESENTATION(#4,#10);
#4 = PRODUCT_DEFINITION_SHAPE('','',#5);
#5 = PRODUCT_DEFINITION('design','',#6,#9);
#6 = PRODUCT_DEFINITION_FORMATION('','',#7);
#7 = PRODUCT('Open CASCADE STEP translator 7.8 7',
  'Open CASCADE STEP translator 7.8 7','',(#8));
#8 = PRODUCT_CONTEXT('',#2,'mechanical');
#9 = PRODUCT_DEFINITION_CONTEXT('part definition',#2,'design');
#10 = ADVANCED_BREP_SHAPE_REPRESENTATION('',(#11,#15),#1207);
#11 = AXIS2_PLACEMENT_3D('',#12,#13,#14);
#12 = CARTESIAN_POINT('',(0.,0.,0.));
#13 = DIRECTION('',(0.,0.,1.));
#14 = DIRECTION('',(1.,0.,-0.));
#15 = MANIFOLD_SOLID_BREP('',#16);
#16 = CLOSED_SHELL('',(#17,#89,#136,#160,#288,#312,#470,#494,#518,#535,
    #601,#625,#653,#696,#731,#763,#780,#823,#858,#881,#907,#950,#982,
    #999,#1042,#1061,#1078,#1095,#1112,#1129,#1154,#1172,#1184));
#17 = ADVANCED_FACE('',(#18),#84,.F.);
#18 = FACE_BOUND('',#19,.T.);
#19 = EDGE_LOOP('',(#20,#30,#38,#46,#54,#62,#70,#78));
#20 = ORIENTED_EDGE('',*,*,#21,.F.);
#21 = EDGE_CURVE('',#22,#24,#26,.T.);
#22 = VERTEX_POINT('',#23);
#23 = CARTESIAN_POINT('',(199.7,146.,36.));
#24 = VERTEX_POINT('',#25);
#25 = CARTESIAN_POINT('',(199.7,120.,6.));
#26 = LINE('',#27,#28);
#27 = CARTESIAN_POINT('',(199.7,146.,36.));
#28 = VECTOR('',#29,1.);
#29 = DIRECTION('',(2.5E-16,-0.654930538418,-0.75568908279));
#30 = ORIENTED_EDGE('',*,*,#31,.T.);
#31 = EDGE_CURVE('',#22,#32,#34,.T.);
#32 = VERTEX_POINT('',#33);
#33 = CARTESIAN_POINT('',(74.3,146.,36.));
#34 = LINE('',#35,#36);
#35 = CARTESIAN_POINT('',(199.7,146.,36.));
#36 = VECTOR('',#37,1.);
#37 = DIRECTION('',(-1.,0.,0.));
#38 = ORIENTED_EDGE('',*,*,#39,.T.);
#39 = EDGE_CURVE('',#32,#40,#42,.T.);
#40 = VERTEX_POINT('',#41);
#41 = CARTESIAN_POINT('',(74.3,139.7,28.730769230769));
#42 = LINE('',#43,#44);
#43 = CARTESIAN_POINT('',(74.3,155.04225888324,46.433375634518));
#44 = VECTOR('',#45,1.);
#45 = DIRECTION('',(0.,-0.654930538418,-0.75568908279));
#46 = ORIENTED_EDGE('',*,*,#47,.T.);
#47 = EDGE_CURVE('',#40,#48,#50,.T.);
#48 = VERTEX_POINT('',#49);
#49 = CARTESIAN_POINT('',(56.3,139.7,28.730769230769));
#50 = LINE('',#51,#52);
#51 = CARTESIAN_POINT('',(127.5,139.7,28.730769230769));
#52 = VECTOR('',#53,1.);
#53 = DIRECTION('',(-1.,0.,0.));
#54 = ORIENTED_EDGE('',*,*,#55,.T.);
#55 = EDGE_CURVE('',#48,#56,#58,.T.);
#56 = VERTEX_POINT('',#57);
#57 = CARTESIAN_POINT('',(56.3,124.,10.615384615385));
#58 = LINE('',#59,#60);
#59 = CARTESIAN_POINT('',(56.3,146.,36.));
#60 = VECTOR('',#61,1.);
#61 = DIRECTION('',(2.5E-16,-0.654930538418,-0.75568908279));
#62 = ORIENTED_EDGE('',*,*,#63,.T.);
#63 = EDGE_CURVE('',#56,#64,#66,.T.);
#64 = VERTEX_POINT('',#65);
#65 = CARTESIAN_POINT('',(60.3,124.,10.615384615385));
#66 = LINE('',#67,#68);
#67 = CARTESIAN_POINT('',(130.,124.,10.615384615385));
#68 = VECTOR('',#69,1.);
#69 = DIRECTION('',(1.,0.,0.));
#70 = ORIENTED_EDGE('',*,*,#71,.T.);
#71 = EDGE_CURVE('',#64,#72,#74,.T.);
#72 = VERTEX_POINT('',#73);
#73 = CARTESIAN_POINT('',(60.3,120.,6.));
#74 = LINE('',#75,#76);
#75 = CARTESIAN_POINT('',(60.3,147.43527918781,37.656091370558));
#76 = VECTOR('',#77,1.);
#77 = DIRECTION('',(0.,-0.654930538418,-0.75568908279));
#78 = ORIENTED_EDGE('',*,*,#79,.F.);
#79 = EDGE_CURVE('',#24,#72,#80,.T.);
#80 = LINE('',#81,#82);
#81 = CARTESIAN_POINT('',(199.7,120.,6.));
#82 = VECTOR('',#83,1.);
#83 = DIRECTION('',(-1.,0.,0.));
#84 = PLANE('',#85);
#85 = AXIS2_PLACEMENT_3D('',#86,#87,#88);
#86 = CARTESIAN_POINT('',(199.7,146.,36.));
#87 = DIRECTION('',(0.,0.75568908279,-0.654930538418));
#88 = DIRECTION('',(-1.2E-16,0.654930538418,0.75568908279));
#89 = ADVANCED_FACE('',(#90),#131,.F.);
#90 = FACE_BOUND('',#91,.T.);
#91 = EDGE_LOOP('',(#92,#93,#101,#109,#117,#125));
#92 = ORIENTED_EDGE('',*,*,#21,.T.);
#93 = ORIENTED_EDGE('',*,*,#94,.T.);
#94 = EDGE_CURVE('',#24,#95,#97,.T.);
#95 = VERTEX_POINT('',#96);
#96 = CARTESIAN_POINT('',(199.7,120.,0.));
#97 = LINE('',#98,#99);
#98 = CARTESIAN_POINT('',(199.7,120.,6.));
#99 = VECTOR('',#100,1.);
#100 = DIRECTION('',(-4.4E-16,-1.224646799147E-16,-1.));
#101 = ORIENTED_EDGE('',*,*,#102,.T.);
#102 = EDGE_CURVE('',#95,#103,#105,.T.);
#103 = VERTEX_POINT('',#104);
#104 = CARTESIAN_POINT('',(199.7,121.6,0.));
#105 = LINE('',#106,#107);
#106 = CARTESIAN_POINT('',(199.7,120.,2.84217094304E-14));
#107 = VECTOR('',#108,1.);
#108 = DIRECTION('',(-8.9E-16,1.,-1.224646799147E-16));
#109 = ORIENTED_EDGE('',*,*,#110,.T.);
#110 = EDGE_CURVE('',#103,#111,#113,.T.);
#111 = VERTEX_POINT('',#112);
#112 = CARTESIAN_POINT('',(199.7,121.6,5.403146677996));
#113 = LINE('',#114,#115);
#114 = CARTESIAN_POINT('',(199.7,121.6,2.84217094304E-14));
#115 = VECTOR('',#116,1.);
#116 = DIRECTION('',(4.4E-16,1.224646799147E-16,1.));
#117 = ORIENTED_EDGE('',*,*,#118,.T.);
#118 = EDGE_CURVE('',#111,#119,#121,.T.);
#119 = VERTEX_POINT('',#120);
#120 = CARTESIAN_POINT('',(199.7,146.,33.556992831843));
#121 = LINE('',#122,#123);
#122 = CARTESIAN_POINT('',(199.7,121.6,5.403146677996));
#123 = VECTOR('',#124,1.);
#124 = DIRECTION('',(-2.5E-16,0.654930538418,0.75568908279));
#125 = ORIENTED_EDGE('',*,*,#126,.T.);
#126 = EDGE_CURVE('',#119,#22,#127,.T.);
#127 = LINE('',#128,#129);
#128 = CARTESIAN_POINT('',(199.7,146.,33.556992831843));
#129 = VECTOR('',#130,1.);
#130 = DIRECTION('',(4.4E-16,1.224646799147E-16,1.));
#131 = PLANE('',#132);
#132 = AXIS2_PLACEMENT_3D('',#133,#134,#135);
#133 = CARTESIAN_POINT('',(199.7,131.94425148474,18.149005224719));
#134 = DIRECTION('',(-1.,0.,0.));
#135 = DIRECTION('',(0.,1.224646799147E-16,1.));
#136 = ADVANCED_FACE('',(#137),#155,.F.);
#137 = FACE_BOUND('',#138,.T.);
#138 = EDGE_LOOP('',(#139,#140,#141,#149));
#139 = ORIENTED_EDGE('',*,*,#94,.F.);
#140 = ORIENTED_EDGE('',*,*,#79,.T.);
#141 = ORIENTED_EDGE('',*,*,#142,.T.);
#142 = EDGE_CURVE('',#72,#143,#145,.T.);
#143 = VERTEX_POINT('',#144);
#144 = CARTESIAN_POINT('',(60.3,120.,2.84217094304E-14));
#145 = LINE('',#146,#147);
#146 = CARTESIAN_POINT('',(60.3,120.,39.5));
#147 = VECTOR('',#148,1.);
#148 = DIRECTION('',(0.,9.753532008526E-17,-1.));
#149 = ORIENTED_EDGE('',*,*,#150,.F.);
#150 = EDGE_CURVE('',#95,#143,#151,.T.);
#151 = LINE('',#152,#153);
#152 = CARTESIAN_POINT('',(199.7,120.,0.));
#153 = VECTOR('',#154,1.);
#154 = DIRECTION('',(-1.,0.,0.));
#155 = PLANE('',#156);
#156 = AXIS2_PLACEMENT_3D('',#157,#158,#159);
#157 = CARTESIAN_POINT('',(199.7,120.,6.));
#158 = DIRECTION('',(-0.,1.,9.753532008526E-17));
#159 = DIRECTION('',(2.2E-16,-9.753532008526E-17,1.));
#160 = ADVANCED_FACE('',(#161),#283,.F.);
#161 = FACE_BOUND('',#162,.T.);
#162 = EDGE_LOOP('',(#163,#173,#181,#189,#197,#205,#213,#221,#229,#237,
    #245,#253,#261,#269,#275,#276,#277));
#163 = ORIENTED_EDGE('',*,*,#164,.F.);
#164 = EDGE_CURVE('',#165,#167,#169,.T.);
#165 = VERTEX_POINT('',#166);
#166 = CARTESIAN_POINT('',(60.3,118.26491106406,73.));
#167 = VERTEX_POINT('',#168);
#168 = CARTESIAN_POINT('',(60.3,124.,73.));
#169 = LINE('',#170,#171);
#170 = CARTESIAN_POINT('',(60.3,110.,73.));
#171 = VECTOR('',#172,1.);
#172 = DIRECTION('',(-0.,1.,-1.224646799147E-16));
#173 = ORIENTED_EDGE('',*,*,#174,.F.);
#174 = EDGE_CURVE('',#175,#165,#177,.T.);
#175 = VERTEX_POINT('',#176);
#176 = CARTESIAN_POINT('',(60.3,118.26491106406,70.8));
#177 = LINE('',#178,#179);
#178 = CARTESIAN_POINT('',(60.3,118.26491106406,78.));
#179 = VECTOR('',#180,1.);
#180 = DIRECTION('',(0.,1.224646799147E-16,1.));
#181 = ORIENTED_EDGE('',*,*,#182,.T.);
#182 = EDGE_CURVE('',#175,#183,#185,.T.);
#183 = VERTEX_POINT('',#184);
#184 = CARTESIAN_POINT('',(60.3,121.3,70.8));
#185 = LINE('',#186,#187);
#186 = CARTESIAN_POINT('',(60.3,115.65,70.8));
#187 = VECTOR('',#188,1.);
#188 = DIRECTION('',(-0.,1.,9.753532008526E-17));
#189 = ORIENTED_EDGE('',*,*,#190,.T.);
#190 = EDGE_CURVE('',#183,#191,#193,.T.);
#191 = VERTEX_POINT('',#192);
#192 = CARTESIAN_POINT('',(60.3,121.3,65.2));
#193 = LINE('',#194,#195);
#194 = CARTESIAN_POINT('',(60.3,121.3,69.1));
#195 = VECTOR('',#196,1.);
#196 = DIRECTION('',(0.,9.753532008526E-17,-1.));
#197 = ORIENTED_EDGE('',*,*,#198,.T.);
#198 = EDGE_CURVE('',#191,#199,#201,.T.);
#199 = VERTEX_POINT('',#200);
#200 = CARTESIAN_POINT('',(60.3,118.26491106406,65.2));
#201 = LINE('',#202,#203);
#202 = CARTESIAN_POINT('',(60.3,111.35,65.2));
#203 = VECTOR('',#204,1.);
#204 = DIRECTION('',(0.,-1.,-9.753532008526E-17));
#205 = ORIENTED_EDGE('',*,*,#206,.F.);
#206 = EDGE_CURVE('',#207,#199,#209,.T.);
#207 = VERTEX_POINT('',#208);
#208 = CARTESIAN_POINT('',(60.3,118.26491106406,58.313451914577));
#209 = LINE('',#210,#211);
#210 = CARTESIAN_POINT('',(60.3,118.26491106406,78.));
#211 = VECTOR('',#212,1.);
#212 = DIRECTION('',(0.,1.224646799147E-16,1.));
#213 = ORIENTED_EDGE('',*,*,#214,.T.);
#214 = EDGE_CURVE('',#207,#215,#217,.T.);
#215 = VERTEX_POINT('',#216);
#216 = CARTESIAN_POINT('',(60.3,120.,56.));
#217 = LINE('',#218,#219);
#218 = CARTESIAN_POINT('',(60.3,114.12,63.84));
#219 = VECTOR('',#220,1.);
#220 = DIRECTION('',(0.,0.6,-0.8));
#221 = ORIENTED_EDGE('',*,*,#222,.T.);
#222 = EDGE_CURVE('',#215,#223,#225,.T.);
#223 = VERTEX_POINT('',#224);
#224 = CARTESIAN_POINT('',(60.3,118.26491106406,53.686548085423));
#225 = LINE('',#226,#227);
#226 = CARTESIAN_POINT('',(60.3,120.78,57.04));
#227 = VECTOR('',#228,1.);
#228 = DIRECTION('',(0.,-0.6,-0.8));
#229 = ORIENTED_EDGE('',*,*,#230,.F.);
#230 = EDGE_CURVE('',#231,#223,#233,.T.);
#231 = VERTEX_POINT('',#232);
#232 = CARTESIAN_POINT('',(60.3,118.26491106406,46.8));
#233 = LINE('',#234,#235);
#234 = CARTESIAN_POINT('',(60.3,118.26491106406,78.));
#235 = VECTOR('',#236,1.);
#236 = DIRECTION('',(0.,1.224646799147E-16,1.));
#237 = ORIENTED_EDGE('',*,*,#238,.T.);
#238 = EDGE_CURVE('',#231,#239,#241,.T.);
#239 = VERTEX_POINT('',#240);
#240 = CARTESIAN_POINT('',(60.3,121.3,46.8));
#241 = LINE('',#242,#243);
#242 = CARTESIAN_POINT('',(60.3,115.65,46.8));
#243 = VECTOR('',#244,1.);
#244 = DIRECTION('',(-0.,1.,9.753532008526E-17));
#245 = ORIENTED_EDGE('',*,*,#246,.T.);
#246 = EDGE_CURVE('',#239,#247,#249,.T.);
#247 = VERTEX_POINT('',#248);
#248 = CARTESIAN_POINT('',(60.3,121.3,41.2));
#249 = LINE('',#250,#251);
#250 = CARTESIAN_POINT('',(60.3,121.3,57.1));
#251 = VECTOR('',#252,1.);
#252 = DIRECTION('',(0.,9.753532008526E-17,-1.));
#253 = ORIENTED_EDGE('',*,*,#254,.T.);
#254 = EDGE_CURVE('',#247,#255,#257,.T.);
#255 = VERTEX_POINT('',#256);
#256 = CARTESIAN_POINT('',(60.3,118.26491106406,41.2));
#257 = LINE('',#258,#259);
#258 = CARTESIAN_POINT('',(60.3,111.35,41.2));
#259 = VECTOR('',#260,1.);
#260 = DIRECTION('',(0.,-1.,-9.753532008526E-17));
#261 = ORIENTED_EDGE('',*,*,#262,.F.);
#262 = EDGE_CURVE('',#263,#255,#265,.T.);
#263 = VERTEX_POINT('',#264);
#264 = CARTESIAN_POINT('',(60.3,118.26491106406,5.684341886081E-14));
#265 = LINE('',#266,#267);
#266 = CARTESIAN_POINT('',(60.3,118.26491106406,78.));
#267 = VECTOR('',#268,1.);
#268 = DIRECTION('',(0.,1.224646799147E-16,1.));
#269 = ORIENTED_EDGE('',*,*,#270,.T.);
#270 = EDGE_CURVE('',#263,#143,#271,.T.);
#271 = LINE('',#272,#273);
#272 = CARTESIAN_POINT('',(60.3,110.,6.149707669757E-14));
#273 = VECTOR('',#274,1.);
#274 = DIRECTION('',(-0.,1.,-1.224646799147E-16));
#275 = ORIENTED_EDGE('',*,*,#142,.F.);
#276 = ORIENTED_EDGE('',*,*,#71,.F.);
#277 = ORIENTED_EDGE('',*,*,#278,.F.);
#278 = EDGE_CURVE('',#167,#64,#279,.T.);
#279 = LINE('',#280,#281);
#280 = CARTESIAN_POINT('',(60.3,124.,73.));
#281 = VECTOR('',#282,1.);
#282 = DIRECTION('',(0.,-1.224646799147E-16,-1.));
#283 = PLANE('',#284);
#284 = AXIS2_PLACEMENT_3D('',#285,#286,#287);
#285 = CARTESIAN_POINT('',(60.3,110.,73.));
#286 = DIRECTION('',(-1.,0.,0.));
#287 = DIRECTION('',(0.,-1.,1.224646799147E-16));
#288 = ADVANCED_FACE('',(#289),#307,.F.);
#289 = FACE_BOUND('',#290,.T.);
#290 = EDGE_LOOP('',(#291,#299,#300,#301));
#291 = ORIENTED_EDGE('',*,*,#292,.F.);
#292 = EDGE_CURVE('',#167,#293,#295,.T.);
#293 = VERTEX_POINT('',#294);
#294 = CARTESIAN_POINT('',(56.3,124.,73.));
#295 = LINE('',#296,#297);
#296 = CARTESIAN_POINT('',(60.3,124.,73.));
#297 = VECTOR('',#298,1.);
#298 = DIRECTION('',(-1.,0.,0.));
#299 = ORIENTED_EDGE('',*,*,#278,.T.);
#300 = ORIENTED_EDGE('',*,*,#63,.F.);
#301 = ORIENTED_EDGE('',*,*,#302,.F.);
#302 = EDGE_CURVE('',#293,#56,#303,.T.);
#303 = LINE('',#304,#305);
#304 = CARTESIAN_POINT('',(56.3,124.,73.));
#305 = VECTOR('',#306,1.);
#306 = DIRECTION('',(0.,-1.224646799147E-16,-1.));
#307 = PLANE('',#308);
#308 = AXIS2_PLACEMENT_3D('',#309,#310,#311);
#309 = CARTESIAN_POINT('',(60.3,124.,73.));
#310 = DIRECTION('',(0.,-1.,1.224646799147E-16));
#311 = DIRECTION('',(1.,0.,0.));
#312 = ADVANCED_FACE('',(#313,#363,#397,#431),#465,.T.);
#313 = FACE_BOUND('',#314,.F.);
#314 = EDGE_LOOP('',(#315,#325,#331,#332,#333,#341,#349,#357));
#315 = ORIENTED_EDGE('',*,*,#316,.T.);
#316 = EDGE_CURVE('',#317,#319,#321,.T.);
#317 = VERTEX_POINT('',#318);
#318 = CARTESIAN_POINT('',(56.3,124.,8.172377447227));
#319 = VERTEX_POINT('',#320);
#320 = CARTESIAN_POINT('',(56.3,139.7,26.287762062612));
#321 = LINE('',#322,#323);
#322 = CARTESIAN_POINT('',(56.3,121.6,5.403146677996));
#323 = VECTOR('',#324,1.);
#324 = DIRECTION('',(-2.5E-16,0.654930538418,0.75568908279));
#325 = ORIENTED_EDGE('',*,*,#326,.T.);
#326 = EDGE_CURVE('',#319,#48,#327,.T.);
#327 = LINE('',#328,#329);
#328 = CARTESIAN_POINT('',(56.3,139.7,55.371042821791));
#329 = VECTOR('',#330,1.);
#330 = DIRECTION('',(-0.,1.224646799147E-16,1.));
#331 = ORIENTED_EDGE('',*,*,#55,.T.);
#332 = ORIENTED_EDGE('',*,*,#302,.F.);
#333 = ORIENTED_EDGE('',*,*,#334,.T.);
#334 = EDGE_CURVE('',#293,#335,#337,.T.);
#335 = VERTEX_POINT('',#336);
#336 = CARTESIAN_POINT('',(56.3,110.,73.));
#337 = LINE('',#338,#339);
#338 = CARTESIAN_POINT('',(56.3,124.,73.));
#339 = VECTOR('',#340,1.);
#340 = DIRECTION('',(0.,-1.,1.224646799147E-16));
#341 = ORIENTED_EDGE('',*,*,#342,.T.);
#342 = EDGE_CURVE('',#335,#343,#345,.T.);
#343 = VERTEX_POINT('',#344);
#344 = CARTESIAN_POINT('',(56.3,110.,5.684341886081E-14));
#345 = LINE('',#346,#347);
#346 = CARTESIAN_POINT('',(56.3,110.,73.));
#347 = VECTOR('',#348,1.);
#348 = DIRECTION('',(0.,-1.224646799147E-16,-1.));
#349 = ORIENTED_EDGE('',*,*,#350,.F.);
#350 = EDGE_CURVE('',#351,#343,#353,.T.);
#351 = VERTEX_POINT('',#352);
#352 = CARTESIAN_POINT('',(56.3,124.,5.684341886081E-14));
#353 = LINE('',#354,#355);
#354 = CARTESIAN_POINT('',(56.3,124.,5.684341886081E-14));
#355 = VECTOR('',#356,1.);
#356 = DIRECTION('',(0.,-1.,1.224646799147E-16));
#357 = ORIENTED_EDGE('',*,*,#358,.F.);
#358 = EDGE_CURVE('',#317,#351,#359,.T.);
#359 = LINE('',#360,#361);
#360 = CARTESIAN_POINT('',(56.3,124.,73.));
#361 = VECTOR('',#362,1.);
#362 = DIRECTION('',(0.,-1.224646799147E-16,-1.));
#363 = FACE_BOUND('',#364,.F.);
#364 = EDGE_LOOP('',(#365,#375,#383,#391));
#365 = ORIENTED_EDGE('',*,*,#366,.F.);
#366 = EDGE_CURVE('',#367,#369,#371,.T.);
#367 = VERTEX_POINT('',#368);
#368 = CARTESIAN_POINT('',(56.3,121.3,65.2));
#369 = VERTEX_POINT('',#370);
#370 = CARTESIAN_POINT('',(56.3,121.3,70.8));
#371 = LINE('',#372,#373);
#372 = CARTESIAN_POINT('',(56.3,121.3,69.1));
#373 = VECTOR('',#374,1.);
#374 = DIRECTION('',(0.,-9.753532008526E-17,1.));
#375 = ORIENTED_EDGE('',*,*,#376,.F.);
#376 = EDGE_CURVE('',#377,#367,#379,.T.);
#377 = VERTEX_POINT('',#378);
#378 = CARTESIAN_POINT('',(56.3,112.7,65.2));
#379 = LINE('',#380,#381);
#380 = CARTESIAN_POINT('',(56.3,118.35,65.2));
#381 = VECTOR('',#382,1.);
#382 = DIRECTION('',(0.,1.,9.753532008526E-17));
#383 = ORIENTED_EDGE('',*,*,#384,.F.);
#384 = EDGE_CURVE('',#385,#377,#387,.T.);
#385 = VERTEX_POINT('',#386);
#386 = CARTESIAN_POINT('',(56.3,112.7,70.8));
#387 = LINE('',#388,#389);
#388 = CARTESIAN_POINT('',(56.3,112.7,71.9));
#389 = VECTOR('',#390,1.);
#390 = DIRECTION('',(0.,9.753532008526E-17,-1.));
#391 = ORIENTED_EDGE('',*,*,#392,.F.);
#392 = EDGE_CURVE('',#369,#385,#393,.T.);
#393 = LINE('',#394,#395);
#394 = CARTESIAN_POINT('',(56.3,122.65,70.8));
#395 = VECTOR('',#396,1.);
#396 = DIRECTION('',(0.,-1.,-9.753532008526E-17));
#397 = FACE_BOUND('',#398,.F.);
#398 = EDGE_LOOP('',(#399,#409,#417,#425));
#399 = ORIENTED_EDGE('',*,*,#400,.F.);
#400 = EDGE_CURVE('',#401,#403,#405,.T.);
#401 = VERTEX_POINT('',#402);
#402 = CARTESIAN_POINT('',(56.3,121.3,41.2));
#403 = VERTEX_POINT('',#404);
#404 = CARTESIAN_POINT('',(56.3,121.3,46.8));
#405 = LINE('',#406,#407);
#406 = CARTESIAN_POINT('',(56.3,121.3,57.1));
#407 = VECTOR('',#408,1.);
#408 = DIRECTION('',(0.,-9.753532008526E-17,1.));
#409 = ORIENTED_EDGE('',*,*,#410,.F.);
#410 = EDGE_CURVE('',#411,#401,#413,.T.);
#411 = VERTEX_POINT('',#412);
#412 = CARTESIAN_POINT('',(56.3,112.7,41.2));
#413 = LINE('',#414,#415);
#414 = CARTESIAN_POINT('',(56.3,118.35,41.2));
#415 = VECTOR('',#416,1.);
#416 = DIRECTION('',(0.,1.,9.753532008526E-17));
#417 = ORIENTED_EDGE('',*,*,#418,.F.);
#418 = EDGE_CURVE('',#419,#411,#421,.T.);
#419 = VERTEX_POINT('',#420);
#420 = CARTESIAN_POINT('',(56.3,112.7,46.8));
#421 = LINE('',#422,#423);
#422 = CARTESIAN_POINT('',(56.3,112.7,59.9));
#423 = VECTOR('',#424,1.);
#424 = DIRECTION('',(0.,9.753532008526E-17,-1.));
#425 = ORIENTED_EDGE('',*,*,#426,.F.);
#426 = EDGE_CURVE('',#403,#419,#427,.T.);
#427 = LINE('',#428,#429);
#428 = CARTESIAN_POINT('',(56.3,122.65,46.8));
#429 = VECTOR('',#430,1.);
#430 = DIRECTION('',(0.,-1.,-9.753532008526E-17));
#431 = FACE_BOUND('',#432,.F.);
#432 = EDGE_LOOP('',(#433,#443,#451,#459));
#433 = ORIENTED_EDGE('',*,*,#434,.F.);
#434 = EDGE_CURVE('',#435,#437,#439,.T.);
#435 = VERTEX_POINT('',#436);
#436 = CARTESIAN_POINT('',(56.3,117.,52.));
#437 = VERTEX_POINT('',#438);
#438 = CARTESIAN_POINT('',(56.3,120.,56.));
#439 = LINE('',#440,#441);
#440 = CARTESIAN_POINT('',(56.3,123.3,60.4));
#441 = VECTOR('',#442,1.);
#442 = DIRECTION('',(0.,0.6,0.8));
#443 = ORIENTED_EDGE('',*,*,#444,.F.);
#444 = EDGE_CURVE('',#445,#435,#447,.T.);
#445 = VERTEX_POINT('',#446);
#446 = CARTESIAN_POINT('',(56.3,114.,56.));
#447 = LINE('',#448,#449);
#448 = CARTESIAN_POINT('',(56.3,111.72,59.04));
#449 = VECTOR('',#450,1.);
#450 = DIRECTION('',(0.,0.6,-0.8));
#451 = ORIENTED_EDGE('',*,*,#452,.F.);
#452 = EDGE_CURVE('',#453,#445,#455,.T.);
#453 = VERTEX_POINT('',#454);
#454 = CARTESIAN_POINT('',(56.3,117.,60.));
#455 = LINE('',#456,#457);
#456 = CARTESIAN_POINT('',(56.3,121.38,65.84));
#457 = VECTOR('',#458,1.);
#458 = DIRECTION('',(0.,-0.6,-0.8));
#459 = ORIENTED_EDGE('',*,*,#460,.F.);
#460 = EDGE_CURVE('',#437,#453,#461,.T.);
#461 = LINE('',#462,#463);
#462 = CARTESIAN_POINT('',(56.3,116.64,60.48));
#463 = VECTOR('',#464,1.);
#464 = DIRECTION('',(0.,-0.6,0.8));
#465 = PLANE('',#466);
#466 = AXIS2_PLACEMENT_3D('',#467,#468,#469);
#467 = CARTESIAN_POINT('',(56.3,122.2368379697,32.742085643582));
#468 = DIRECTION('',(-1.,-7.6E-16,9.30731567352E-32));
#469 = DIRECTION('',(-7.6E-16,1.,-1.224646799147E-16));
#470 = ADVANCED_FACE('',(#471),#489,.T.);
#471 = FACE_BOUND('',#472,.F.);
#472 = EDGE_LOOP('',(#473,#481,#482,#483));
#473 = ORIENTED_EDGE('',*,*,#474,.F.);
#474 = EDGE_CURVE('',#40,#475,#477,.T.);
#475 = VERTEX_POINT('',#476);
#476 = CARTESIAN_POINT('',(74.3,139.7,26.287762062612));
#477 = LINE('',#478,#479);
#478 = CARTESIAN_POINT('',(74.3,139.7,78.));
#479 = VECTOR('',#480,1.);
#480 = DIRECTION('',(0.,-1.224646799147E-16,-1.));
#481 = ORIENTED_EDGE('',*,*,#47,.T.);
#482 = ORIENTED_EDGE('',*,*,#326,.F.);
#483 = ORIENTED_EDGE('',*,*,#484,.T.);
#484 = EDGE_CURVE('',#319,#475,#485,.T.);
#485 = LINE('',#486,#487);
#486 = CARTESIAN_POINT('',(127.5,139.7,26.287762062612));
#487 = VECTOR('',#488,1.);
#488 = DIRECTION('',(1.,0.,0.));
#489 = PLANE('',#490);
#490 = AXIS2_PLACEMENT_3D('',#491,#492,#493);
#491 = CARTESIAN_POINT('',(55.3,139.7,78.));
#492 = DIRECTION('',(-0.,1.,-1.224646799147E-16));
#493 = DIRECTION('',(-1.,0.,0.));
#494 = ADVANCED_FACE('',(#495),#513,.T.);
#495 = FACE_BOUND('',#496,.F.);
#496 = EDGE_LOOP('',(#497,#498,#499,#507));
#497 = ORIENTED_EDGE('',*,*,#39,.T.);
#498 = ORIENTED_EDGE('',*,*,#474,.T.);
#499 = ORIENTED_EDGE('',*,*,#500,.T.);
#500 = EDGE_CURVE('',#475,#501,#503,.T.);
#501 = VERTEX_POINT('',#502);
#502 = CARTESIAN_POINT('',(74.3,146.,33.556992831843));
#503 = LINE('',#504,#505);
#504 = CARTESIAN_POINT('',(74.3,143.44681014948,30.611004542782));
#505 = VECTOR('',#506,1.);
#506 = DIRECTION('',(-0.,0.654930538418,0.75568908279));
#507 = ORIENTED_EDGE('',*,*,#508,.T.);
#508 = EDGE_CURVE('',#501,#32,#509,.T.);
#509 = LINE('',#510,#511);
#510 = CARTESIAN_POINT('',(74.3,146.,55.778496415921));
#511 = VECTOR('',#512,1.);
#512 = DIRECTION('',(0.,-9.753532008526E-17,1.));
#513 = PLANE('',#514);
#514 = AXIS2_PLACEMENT_3D('',#515,#516,#517);
#515 = CARTESIAN_POINT('',(74.3,139.7,78.));
#516 = DIRECTION('',(-1.,0.,0.));
#517 = DIRECTION('',(0.,-1.,1.224646799147E-16));
#518 = ADVANCED_FACE('',(#519),#530,.F.);
#519 = FACE_BOUND('',#520,.T.);
#520 = EDGE_LOOP('',(#521,#522,#528,#529));
#521 = ORIENTED_EDGE('',*,*,#126,.F.);
#522 = ORIENTED_EDGE('',*,*,#523,.T.);
#523 = EDGE_CURVE('',#119,#501,#524,.T.);
#524 = LINE('',#525,#526);
#525 = CARTESIAN_POINT('',(199.7,146.,33.556992831843));
#526 = VECTOR('',#527,1.);
#527 = DIRECTION('',(-1.,0.,0.));
#528 = ORIENTED_EDGE('',*,*,#508,.T.);
#529 = ORIENTED_EDGE('',*,*,#31,.F.);
#530 = PLANE('',#531);
#531 = AXIS2_PLACEMENT_3D('',#532,#533,#534);
#532 = CARTESIAN_POINT('',(199.7,146.,33.556992831843));
#533 = DIRECTION('',(0.,-1.,-9.753532008526E-17));
#534 = DIRECTION('',(-2.2E-16,9.753532008526E-17,-1.));
#535 = ADVANCED_FACE('',(#536),#596,.T.);
#536 = FACE_BOUND('',#537,.F.);
#537 = EDGE_LOOP('',(#538,#539,#547,#555,#561,#562,#570,#578,#587,#594,
    #595));
#538 = ORIENTED_EDGE('',*,*,#102,.T.);
#539 = ORIENTED_EDGE('',*,*,#540,.T.);
#540 = EDGE_CURVE('',#103,#541,#543,.T.);
#541 = VERTEX_POINT('',#542);
#542 = CARTESIAN_POINT('',(60.3,121.6,2.84217094304E-14));
#543 = LINE('',#544,#545);
#544 = CARTESIAN_POINT('',(199.7,121.6,0.));
#545 = VECTOR('',#546,1.);
#546 = DIRECTION('',(-1.,0.,0.));
#547 = ORIENTED_EDGE('',*,*,#548,.T.);
#548 = EDGE_CURVE('',#541,#549,#551,.T.);
#549 = VERTEX_POINT('',#550);
#550 = CARTESIAN_POINT('',(60.3,124.,5.684341886081E-14));
#551 = LINE('',#552,#553);
#552 = CARTESIAN_POINT('',(60.3,110.,6.149707669757E-14));
#553 = VECTOR('',#554,1.);
#554 = DIRECTION('',(-0.,1.,-1.224646799147E-16));
#555 = ORIENTED_EDGE('',*,*,#556,.T.);
#556 = EDGE_CURVE('',#549,#351,#557,.T.);
#557 = LINE('',#558,#559);
#558 = CARTESIAN_POINT('',(60.3,124.,5.978257117876E-14));
#559 = VECTOR('',#560,1.);
#560 = DIRECTION('',(-1.,0.,0.));
#561 = ORIENTED_EDGE('',*,*,#350,.T.);
#562 = ORIENTED_EDGE('',*,*,#563,.T.);
#563 = EDGE_CURVE('',#343,#564,#566,.T.);
#564 = VERTEX_POINT('',#565);
#565 = CARTESIAN_POINT('',(60.3,110.,5.684341886081E-14));
#566 = LINE('',#567,#568);
#567 = CARTESIAN_POINT('',(56.3,110.,6.149707669757E-14));
#568 = VECTOR('',#569,1.);
#569 = DIRECTION('',(1.,0.,0.));
#570 = ORIENTED_EDGE('',*,*,#571,.T.);
#571 = EDGE_CURVE('',#564,#572,#574,.T.);
#572 = VERTEX_POINT('',#573);
#573 = CARTESIAN_POINT('',(60.3,115.73508893593,5.684341886081E-14));
#574 = LINE('',#575,#576);
#575 = CARTESIAN_POINT('',(60.3,110.,6.149707669757E-14));
#576 = VECTOR('',#577,1.);
#577 = DIRECTION('',(-0.,1.,-1.224646799147E-16));
#578 = ORIENTED_EDGE('',*,*,#579,.T.);
#579 = EDGE_CURVE('',#572,#580,#582,.T.);
#580 = VERTEX_POINT('',#581);
#581 = CARTESIAN_POINT('',(59.9,117.,5.684341886081E-14));
#582 = CIRCLE('',#583,2.2);
#583 = AXIS2_PLACEMENT_3D('',#584,#585,#586);
#584 = CARTESIAN_POINT('',(62.1,117.,5.684341886081E-14));
#585 = DIRECTION('',(0.,-1.224646799147E-16,-1.));
#586 = DIRECTION('',(-1.,-0.,0.));
#587 = ORIENTED_EDGE('',*,*,#588,.T.);
#588 = EDGE_CURVE('',#580,#263,#589,.T.);
#589 = CIRCLE('',#590,2.2);
#590 = AXIS2_PLACEMENT_3D('',#591,#592,#593);
#591 = CARTESIAN_POINT('',(62.1,117.,5.684341886081E-14));
#592 = DIRECTION('',(0.,-1.224646799147E-16,-1.));
#593 = DIRECTION('',(-1.,-0.,0.));
#594 = ORIENTED_EDGE('',*,*,#270,.T.);
#595 = ORIENTED_EDGE('',*,*,#150,.F.);
#596 = PLANE('',#597);
#597 = AXIS2_PLACEMENT_3D('',#598,#599,#600);
#598 = CARTESIAN_POINT('',(122.47507120074,120.3637208336,
    2.84217094304E-14));
#599 = DIRECTION('',(0.,-3.952464679915E-15,-1.));
#600 = DIRECTION('',(0.,1.,-3.952464679915E-15));
#601 = ADVANCED_FACE('',(#602),#620,.F.);
#602 = FACE_BOUND('',#603,.T.);
#603 = EDGE_LOOP('',(#604,#605,#606,#614));
#604 = ORIENTED_EDGE('',*,*,#110,.F.);
#605 = ORIENTED_EDGE('',*,*,#540,.T.);
#606 = ORIENTED_EDGE('',*,*,#607,.T.);
#607 = EDGE_CURVE('',#541,#608,#610,.T.);
#608 = VERTEX_POINT('',#609);
#609 = CARTESIAN_POINT('',(60.3,121.6,5.403146677996));
#610 = LINE('',#611,#612);
#611 = CARTESIAN_POINT('',(60.3,121.6,36.5));
#612 = VECTOR('',#613,1.);
#613 = DIRECTION('',(0.,-9.753532008526E-17,1.));
#614 = ORIENTED_EDGE('',*,*,#615,.F.);
#615 = EDGE_CURVE('',#111,#608,#616,.T.);
#616 = LINE('',#617,#618);
#617 = CARTESIAN_POINT('',(199.7,121.6,5.403146677996));
#618 = VECTOR('',#619,1.);
#619 = DIRECTION('',(-1.,0.,0.));
#620 = PLANE('',#621);
#621 = AXIS2_PLACEMENT_3D('',#622,#623,#624);
#622 = CARTESIAN_POINT('',(199.7,121.6,0.));
#623 = DIRECTION('',(0.,-1.,-9.753532008526E-17));
#624 = DIRECTION('',(-2.2E-16,9.753532008526E-17,-1.));
#625 = ADVANCED_FACE('',(#626),#648,.F.);
#626 = FACE_BOUND('',#627,.T.);
#627 = EDGE_LOOP('',(#628,#629,#630,#638,#644,#645,#646,#647));
#628 = ORIENTED_EDGE('',*,*,#118,.F.);
#629 = ORIENTED_EDGE('',*,*,#615,.T.);
#630 = ORIENTED_EDGE('',*,*,#631,.T.);
#631 = EDGE_CURVE('',#608,#632,#634,.T.);
#632 = VERTEX_POINT('',#633);
#633 = CARTESIAN_POINT('',(60.3,124.,8.172377447227));
#634 = LINE('',#635,#636);
#635 = CARTESIAN_POINT('',(60.3,135.83983045404,21.833720278822));
#636 = VECTOR('',#637,1.);
#637 = DIRECTION('',(-0.,0.654930538418,0.75568908279));
#638 = ORIENTED_EDGE('',*,*,#639,.T.);
#639 = EDGE_CURVE('',#632,#317,#640,.T.);
#640 = LINE('',#641,#642);
#641 = CARTESIAN_POINT('',(130.,124.,8.172377447227));
#642 = VECTOR('',#643,1.);
#643 = DIRECTION('',(-1.,0.,0.));
#644 = ORIENTED_EDGE('',*,*,#316,.T.);
#645 = ORIENTED_EDGE('',*,*,#484,.T.);
#646 = ORIENTED_EDGE('',*,*,#500,.T.);
#647 = ORIENTED_EDGE('',*,*,#523,.F.);
#648 = PLANE('',#649);
#649 = AXIS2_PLACEMENT_3D('',#650,#651,#652);
#650 = CARTESIAN_POINT('',(199.7,121.6,5.403146677996));
#651 = DIRECTION('',(0.,-0.75568908279,0.654930538418));
#652 = DIRECTION('',(1.2E-16,-0.654930538418,-0.75568908279));
#653 = ADVANCED_FACE('',(#654),#691,.F.);
#654 = FACE_BOUND('',#655,.T.);
#655 = EDGE_LOOP('',(#656,#657,#658,#659,#667,#675,#684));
#656 = ORIENTED_EDGE('',*,*,#164,.T.);
#657 = ORIENTED_EDGE('',*,*,#292,.T.);
#658 = ORIENTED_EDGE('',*,*,#334,.T.);
#659 = ORIENTED_EDGE('',*,*,#660,.T.);
#660 = EDGE_CURVE('',#335,#661,#663,.T.);
#661 = VERTEX_POINT('',#662);
#662 = CARTESIAN_POINT('',(60.3,110.,73.));
#663 = LINE('',#664,#665);
#664 = CARTESIAN_POINT('',(56.3,110.,73.));
#665 = VECTOR('',#666,1.);
#666 = DIRECTION('',(1.,0.,0.));
#667 = ORIENTED_EDGE('',*,*,#668,.T.);
#668 = EDGE_CURVE('',#661,#669,#671,.T.);
#669 = VERTEX_POINT('',#670);
#670 = CARTESIAN_POINT('',(60.3,115.73508893593,73.));
#671 = LINE('',#672,#673);
#672 = CARTESIAN_POINT('',(60.3,110.,73.));
#673 = VECTOR('',#674,1.);
#674 = DIRECTION('',(-0.,1.,-1.224646799147E-16));
#675 = ORIENTED_EDGE('',*,*,#676,.T.);
#676 = EDGE_CURVE('',#669,#677,#679,.T.);
#677 = VERTEX_POINT('',#678);
#678 = CARTESIAN_POINT('',(59.9,117.,73.));
#679 = CIRCLE('',#680,2.2);
#680 = AXIS2_PLACEMENT_3D('',#681,#682,#683);
#681 = CARTESIAN_POINT('',(62.1,117.,73.));
#682 = DIRECTION('',(0.,-1.224646799147E-16,-1.));
#683 = DIRECTION('',(-1.,-0.,0.));
#684 = ORIENTED_EDGE('',*,*,#685,.T.);
#685 = EDGE_CURVE('',#677,#165,#686,.T.);
#686 = CIRCLE('',#687,2.2);
#687 = AXIS2_PLACEMENT_3D('',#688,#689,#690);
#688 = CARTESIAN_POINT('',(62.1,117.,73.));
#689 = DIRECTION('',(0.,-1.224646799147E-16,-1.));
#690 = DIRECTION('',(-1.,-0.,0.));
#691 = PLANE('',#692);
#692 = AXIS2_PLACEMENT_3D('',#693,#694,#695);
#693 = CARTESIAN_POINT('',(58.3,117.,73.));
#694 = DIRECTION('',(0.,-1.224646799147E-16,-1.));
#695 = DIRECTION('',(1.,0.,0.));
#696 = ADVANCED_FACE('',(#697),#726,.F.);
#697 = FACE_BOUND('',#698,.F.);
#698 = EDGE_LOOP('',(#699,#700,#708,#717,#724,#725));
#699 = ORIENTED_EDGE('',*,*,#579,.F.);
#700 = ORIENTED_EDGE('',*,*,#701,.T.);
#701 = EDGE_CURVE('',#572,#702,#704,.T.);
#702 = VERTEX_POINT('',#703);
#703 = CARTESIAN_POINT('',(60.3,115.73508893593,41.2));
#704 = LINE('',#705,#706);
#705 = CARTESIAN_POINT('',(60.3,115.73508893593,78.));
#706 = VECTOR('',#707,1.);
#707 = DIRECTION('',(0.,1.224646799147E-16,1.));
#708 = ORIENTED_EDGE('',*,*,#709,.T.);
#709 = EDGE_CURVE('',#702,#710,#712,.T.);
#710 = VERTEX_POINT('',#711);
#711 = CARTESIAN_POINT('',(59.9,117.,41.2));
#712 = CIRCLE('',#713,2.2);
#713 = AXIS2_PLACEMENT_3D('',#714,#715,#716);
#714 = CARTESIAN_POINT('',(62.1,117.,41.2));
#715 = DIRECTION('',(0.,-1.224646799147E-16,-1.));
#716 = DIRECTION('',(-1.,-0.,0.));
#717 = ORIENTED_EDGE('',*,*,#718,.T.);
#718 = EDGE_CURVE('',#710,#255,#719,.T.);
#719 = CIRCLE('',#720,2.2);
#720 = AXIS2_PLACEMENT_3D('',#721,#722,#723);
#721 = CARTESIAN_POINT('',(62.1,117.,41.2));
#722 = DIRECTION('',(0.,-1.224646799147E-16,-1.));
#723 = DIRECTION('',(-1.,-0.,0.));
#724 = ORIENTED_EDGE('',*,*,#262,.F.);
#725 = ORIENTED_EDGE('',*,*,#588,.F.);
#726 = CYLINDRICAL_SURFACE('',#727,2.2);
#727 = AXIS2_PLACEMENT_3D('',#728,#729,#730);
#728 = CARTESIAN_POINT('',(62.1,117.,78.));
#729 = DIRECTION('',(0.,1.224646799147E-16,1.));
#730 = DIRECTION('',(-1.,0.,-0.));
#731 = ADVANCED_FACE('',(#732),#758,.T.);
#732 = FACE_BOUND('',#733,.F.);
#733 = EDGE_LOOP('',(#734,#740,#741,#742,#743,#751,#757));
#734 = ORIENTED_EDGE('',*,*,#735,.F.);
#735 = EDGE_CURVE('',#247,#401,#736,.T.);
#736 = LINE('',#737,#738);
#737 = CARTESIAN_POINT('',(61.3,121.3,41.2));
#738 = VECTOR('',#739,1.);
#739 = DIRECTION('',(-1.,0.,0.));
#740 = ORIENTED_EDGE('',*,*,#254,.T.);
#741 = ORIENTED_EDGE('',*,*,#718,.F.);
#742 = ORIENTED_EDGE('',*,*,#709,.F.);
#743 = ORIENTED_EDGE('',*,*,#744,.T.);
#744 = EDGE_CURVE('',#702,#745,#747,.T.);
#745 = VERTEX_POINT('',#746);
#746 = CARTESIAN_POINT('',(60.3,112.7,41.2));
#747 = LINE('',#748,#749);
#748 = CARTESIAN_POINT('',(60.3,111.35,41.2));
#749 = VECTOR('',#750,1.);
#750 = DIRECTION('',(0.,-1.,-9.753532008526E-17));
#751 = ORIENTED_EDGE('',*,*,#752,.T.);
#752 = EDGE_CURVE('',#745,#411,#753,.T.);
#753 = LINE('',#754,#755);
#754 = CARTESIAN_POINT('',(61.3,112.7,41.2));
#755 = VECTOR('',#756,1.);
#756 = DIRECTION('',(-1.,0.,0.));
#757 = ORIENTED_EDGE('',*,*,#410,.T.);
#758 = PLANE('',#759);
#759 = AXIS2_PLACEMENT_3D('',#760,#761,#762);
#760 = CARTESIAN_POINT('',(61.3,112.7,41.2));
#761 = DIRECTION('',(0.,-9.753532008526E-17,1.));
#762 = DIRECTION('',(4.4E-16,-1.,-9.753532008526E-17));
#763 = ADVANCED_FACE('',(#764),#775,.T.);
#764 = FACE_BOUND('',#765,.F.);
#765 = EDGE_LOOP('',(#766,#767,#768,#769));
#766 = ORIENTED_EDGE('',*,*,#246,.T.);
#767 = ORIENTED_EDGE('',*,*,#735,.T.);
#768 = ORIENTED_EDGE('',*,*,#400,.T.);
#769 = ORIENTED_EDGE('',*,*,#770,.F.);
#770 = EDGE_CURVE('',#239,#403,#771,.T.);
#771 = LINE('',#772,#773);
#772 = CARTESIAN_POINT('',(61.3,121.3,46.8));
#773 = VECTOR('',#774,1.);
#774 = DIRECTION('',(-1.,0.,0.));
#775 = PLANE('',#776);
#776 = AXIS2_PLACEMENT_3D('',#777,#778,#779);
#777 = CARTESIAN_POINT('',(61.3,121.3,41.2));
#778 = DIRECTION('',(0.,-1.,-9.753532008526E-17));
#779 = DIRECTION('',(-2.2E-16,9.753532008526E-17,-1.));
#780 = ADVANCED_FACE('',(#781),#818,.T.);
#781 = FACE_BOUND('',#782,.F.);
#782 = EDGE_LOOP('',(#783,#791,#799,#808,#815,#816,#817));
#783 = ORIENTED_EDGE('',*,*,#784,.F.);
#784 = EDGE_CURVE('',#785,#419,#787,.T.);
#785 = VERTEX_POINT('',#786);
#786 = CARTESIAN_POINT('',(60.3,112.7,46.8));
#787 = LINE('',#788,#789);
#788 = CARTESIAN_POINT('',(61.3,112.7,46.8));
#789 = VECTOR('',#790,1.);
#790 = DIRECTION('',(-1.,0.,0.));
#791 = ORIENTED_EDGE('',*,*,#792,.T.);
#792 = EDGE_CURVE('',#785,#793,#795,.T.);
#793 = VERTEX_POINT('',#794);
#794 = CARTESIAN_POINT('',(60.3,115.73508893593,46.8));
#795 = LINE('',#796,#797);
#796 = CARTESIAN_POINT('',(60.3,115.65,46.8));
#797 = VECTOR('',#798,1.);
#798 = DIRECTION('',(-0.,1.,9.753532008526E-17));
#799 = ORIENTED_EDGE('',*,*,#800,.T.);
#800 = EDGE_CURVE('',#793,#801,#803,.T.);
#801 = VERTEX_POINT('',#802);
#802 = CARTESIAN_POINT('',(59.9,117.,46.8));
#803 = CIRCLE('',#804,2.2);
#804 = AXIS2_PLACEMENT_3D('',#805,#806,#807);
#805 = CARTESIAN_POINT('',(62.1,117.,46.8));
#806 = DIRECTION('',(0.,-1.224646799147E-16,-1.));
#807 = DIRECTION('',(-1.,-0.,0.));
#808 = ORIENTED_EDGE('',*,*,#809,.T.);
#809 = EDGE_CURVE('',#801,#231,#810,.T.);
#810 = CIRCLE('',#811,2.2);
#811 = AXIS2_PLACEMENT_3D('',#812,#813,#814);
#812 = CARTESIAN_POINT('',(62.1,117.,46.8));
#813 = DIRECTION('',(0.,-1.224646799147E-16,-1.));
#814 = DIRECTION('',(-1.,-0.,0.));
#815 = ORIENTED_EDGE('',*,*,#238,.T.);
#816 = ORIENTED_EDGE('',*,*,#770,.T.);
#817 = ORIENTED_EDGE('',*,*,#426,.T.);
#818 = PLANE('',#819);
#819 = AXIS2_PLACEMENT_3D('',#820,#821,#822);
#820 = CARTESIAN_POINT('',(61.3,121.3,46.8));
#821 = DIRECTION('',(0.,9.753532008526E-17,-1.));
#822 = DIRECTION('',(-4.4E-16,1.,9.753532008526E-17));
#823 = ADVANCED_FACE('',(#824),#853,.F.);
#824 = FACE_BOUND('',#825,.F.);
#825 = EDGE_LOOP('',(#826,#827,#835,#844,#851,#852));
#826 = ORIENTED_EDGE('',*,*,#800,.F.);
#827 = ORIENTED_EDGE('',*,*,#828,.T.);
#828 = EDGE_CURVE('',#793,#829,#831,.T.);
#829 = VERTEX_POINT('',#830);
#830 = CARTESIAN_POINT('',(60.3,115.73508893593,53.686548085423));
#831 = LINE('',#832,#833);
#832 = CARTESIAN_POINT('',(60.3,115.73508893593,78.));
#833 = VECTOR('',#834,1.);
#834 = DIRECTION('',(0.,1.224646799147E-16,1.));
#835 = ORIENTED_EDGE('',*,*,#836,.T.);
#836 = EDGE_CURVE('',#829,#837,#839,.T.);
#837 = VERTEX_POINT('',#838);
#838 = CARTESIAN_POINT('',(59.9,117.,52.));
#839 = ELLIPSE('',#840,3.666666666667,2.2);
#840 = AXIS2_PLACEMENT_3D('',#841,#842,#843);
#841 = CARTESIAN_POINT('',(62.1,117.,52.));
#842 = DIRECTION('',(-0.,-0.8,-0.6));
#843 = DIRECTION('',(0.,-0.6,0.8));
#844 = ORIENTED_EDGE('',*,*,#845,.T.);
#845 = EDGE_CURVE('',#837,#223,#846,.T.);
#846 = ELLIPSE('',#847,3.666666666667,2.2);
#847 = AXIS2_PLACEMENT_3D('',#848,#849,#850);
#848 = CARTESIAN_POINT('',(62.1,117.,52.));
#849 = DIRECTION('',(0.,0.8,-0.6));
#850 = DIRECTION('',(-0.,0.6,0.8));
#851 = ORIENTED_EDGE('',*,*,#230,.F.);
#852 = ORIENTED_EDGE('',*,*,#809,.F.);
#853 = CYLINDRICAL_SURFACE('',#854,2.2);
#854 = AXIS2_PLACEMENT_3D('',#855,#856,#857);
#855 = CARTESIAN_POINT('',(62.1,117.,78.));
#856 = DIRECTION('',(0.,1.224646799147E-16,1.));
#857 = DIRECTION('',(-1.,0.,-0.));
#858 = ADVANCED_FACE('',(#859),#876,.T.);
#859 = FACE_BOUND('',#860,.F.);
#860 = EDGE_LOOP('',(#861,#867,#868,#869,#875));
#861 = ORIENTED_EDGE('',*,*,#862,.F.);
#862 = EDGE_CURVE('',#215,#437,#863,.T.);
#863 = LINE('',#864,#865);
#864 = CARTESIAN_POINT('',(61.3,120.,56.));
#865 = VECTOR('',#866,1.);
#866 = DIRECTION('',(-1.,0.,0.));
#867 = ORIENTED_EDGE('',*,*,#222,.T.);
#868 = ORIENTED_EDGE('',*,*,#845,.F.);
#869 = ORIENTED_EDGE('',*,*,#870,.T.);
#870 = EDGE_CURVE('',#837,#435,#871,.T.);
#871 = LINE('',#872,#873);
#872 = CARTESIAN_POINT('',(61.3,117.,52.));
#873 = VECTOR('',#874,1.);
#874 = DIRECTION('',(-1.,0.,0.));
#875 = ORIENTED_EDGE('',*,*,#434,.T.);
#876 = PLANE('',#877);
#877 = AXIS2_PLACEMENT_3D('',#878,#879,#880);
#878 = CARTESIAN_POINT('',(61.3,117.,52.));
#879 = DIRECTION('',(0.,-0.8,0.6));
#880 = DIRECTION('',(9.E-17,-0.6,-0.8));
#881 = ADVANCED_FACE('',(#882),#902,.T.);
#882 = FACE_BOUND('',#883,.F.);
#883 = EDGE_LOOP('',(#884,#893,#894,#895,#896));
#884 = ORIENTED_EDGE('',*,*,#885,.F.);
#885 = EDGE_CURVE('',#207,#886,#888,.T.);
#886 = VERTEX_POINT('',#887);
#887 = CARTESIAN_POINT('',(59.9,117.,60.));
#888 = ELLIPSE('',#889,3.666666666667,2.2);
#889 = AXIS2_PLACEMENT_3D('',#890,#891,#892);
#890 = CARTESIAN_POINT('',(62.1,117.,60.));
#891 = DIRECTION('',(-0.,0.8,0.6));
#892 = DIRECTION('',(0.,-0.6,0.8));
#893 = ORIENTED_EDGE('',*,*,#214,.T.);
#894 = ORIENTED_EDGE('',*,*,#862,.T.);
#895 = ORIENTED_EDGE('',*,*,#460,.T.);
#896 = ORIENTED_EDGE('',*,*,#897,.F.);
#897 = EDGE_CURVE('',#886,#453,#898,.T.);
#898 = LINE('',#899,#900);
#899 = CARTESIAN_POINT('',(61.3,117.,60.));
#900 = VECTOR('',#901,1.);
#901 = DIRECTION('',(-1.,0.,0.));
#902 = PLANE('',#903);
#903 = AXIS2_PLACEMENT_3D('',#904,#905,#906);
#904 = CARTESIAN_POINT('',(61.3,120.,56.));
#905 = DIRECTION('',(0.,-0.8,-0.6));
#906 = DIRECTION('',(-4.4E-16,0.6,-0.8));
#907 = ADVANCED_FACE('',(#908),#945,.F.);
#908 = FACE_BOUND('',#909,.F.);
#909 = EDGE_LOOP('',(#910,#919,#927,#936,#943,#944));
#910 = ORIENTED_EDGE('',*,*,#911,.T.);
#911 = EDGE_CURVE('',#886,#912,#914,.T.);
#912 = VERTEX_POINT('',#913);
#913 = CARTESIAN_POINT('',(60.3,115.73508893593,58.313451914577));
#914 = ELLIPSE('',#915,3.666666666667,2.2);
#915 = AXIS2_PLACEMENT_3D('',#916,#917,#918);
#916 = CARTESIAN_POINT('',(62.1,117.,60.));
#917 = DIRECTION('',(0.,-0.8,0.6));
#918 = DIRECTION('',(0.,0.6,0.8));
#919 = ORIENTED_EDGE('',*,*,#920,.T.);
#920 = EDGE_CURVE('',#912,#921,#923,.T.);
#921 = VERTEX_POINT('',#922);
#922 = CARTESIAN_POINT('',(60.3,115.73508893593,65.2));
#923 = LINE('',#924,#925);
#924 = CARTESIAN_POINT('',(60.3,115.73508893593,78.));
#925 = VECTOR('',#926,1.);
#926 = DIRECTION('',(0.,1.224646799147E-16,1.));
#927 = ORIENTED_EDGE('',*,*,#928,.T.);
#928 = EDGE_CURVE('',#921,#929,#931,.T.);
#929 = VERTEX_POINT('',#930);
#930 = CARTESIAN_POINT('',(59.9,117.,65.2));
#931 = CIRCLE('',#932,2.2);
#932 = AXIS2_PLACEMENT_3D('',#933,#934,#935);
#933 = CARTESIAN_POINT('',(62.1,117.,65.2));
#934 = DIRECTION('',(0.,-1.224646799147E-16,-1.));
#935 = DIRECTION('',(-1.,-0.,0.));
#936 = ORIENTED_EDGE('',*,*,#937,.T.);
#937 = EDGE_CURVE('',#929,#199,#938,.T.);
#938 = CIRCLE('',#939,2.2);
#939 = AXIS2_PLACEMENT_3D('',#940,#941,#942);
#940 = CARTESIAN_POINT('',(62.1,117.,65.2));
#941 = DIRECTION('',(0.,-1.224646799147E-16,-1.));
#942 = DIRECTION('',(-1.,-0.,0.));
#943 = ORIENTED_EDGE('',*,*,#206,.F.);
#944 = ORIENTED_EDGE('',*,*,#885,.T.);
#945 = CYLINDRICAL_SURFACE('',#946,2.2);
#946 = AXIS2_PLACEMENT_3D('',#947,#948,#949);
#947 = CARTESIAN_POINT('',(62.1,117.,78.));
#948 = DIRECTION('',(0.,1.224646799147E-16,1.));
#949 = DIRECTION('',(-1.,0.,-0.));
#950 = ADVANCED_FACE('',(#951),#977,.T.);
#951 = FACE_BOUND('',#952,.F.);
#952 = EDGE_LOOP('',(#953,#959,#960,#961,#962,#970,#976));
#953 = ORIENTED_EDGE('',*,*,#954,.F.);
#954 = EDGE_CURVE('',#191,#367,#955,.T.);
#955 = LINE('',#956,#957);
#956 = CARTESIAN_POINT('',(61.3,121.3,65.2));
#957 = VECTOR('',#958,1.);
#958 = DIRECTION('',(-1.,0.,0.));
#959 = ORIENTED_EDGE('',*,*,#198,.T.);
#960 = ORIENTED_EDGE('',*,*,#937,.F.);
#961 = ORIENTED_EDGE('',*,*,#928,.F.);
#962 = ORIENTED_EDGE('',*,*,#963,.T.);
#963 = EDGE_CURVE('',#921,#964,#966,.T.);
#964 = VERTEX_POINT('',#965);
#965 = CARTESIAN_POINT('',(60.3,112.7,65.2));
#966 = LINE('',#967,#968);
#967 = CARTESIAN_POINT('',(60.3,111.35,65.2));
#968 = VECTOR('',#969,1.);
#969 = DIRECTION('',(0.,-1.,-9.753532008526E-17));
#970 = ORIENTED_EDGE('',*,*,#971,.T.);
#971 = EDGE_CURVE('',#964,#377,#972,.T.);
#972 = LINE('',#973,#974);
#973 = CARTESIAN_POINT('',(61.3,112.7,65.2));
#974 = VECTOR('',#975,1.);
#975 = DIRECTION('',(-1.,0.,0.));
#976 = ORIENTED_EDGE('',*,*,#376,.T.);
#977 = PLANE('',#978);
#978 = AXIS2_PLACEMENT_3D('',#979,#980,#981);
#979 = CARTESIAN_POINT('',(61.3,112.7,65.2));
#980 = DIRECTION('',(0.,-9.753532008526E-17,1.));
#981 = DIRECTION('',(4.4E-16,-1.,-9.753532008526E-17));
#982 = ADVANCED_FACE('',(#983),#994,.T.);
#983 = FACE_BOUND('',#984,.F.);
#984 = EDGE_LOOP('',(#985,#986,#987,#988));
#985 = ORIENTED_EDGE('',*,*,#190,.T.);
#986 = ORIENTED_EDGE('',*,*,#954,.T.);
#987 = ORIENTED_EDGE('',*,*,#366,.T.);
#988 = ORIENTED_EDGE('',*,*,#989,.F.);
#989 = EDGE_CURVE('',#183,#369,#990,.T.);
#990 = LINE('',#991,#992);
#991 = CARTESIAN_POINT('',(61.3,121.3,70.8));
#992 = VECTOR('',#993,1.);
#993 = DIRECTION('',(-1.,0.,0.));
#994 = PLANE('',#995);
#995 = AXIS2_PLACEMENT_3D('',#996,#997,#998);
#996 = CARTESIAN_POINT('',(61.3,121.3,65.2));
#997 = DIRECTION('',(0.,-1.,-9.753532008526E-17));
#998 = DIRECTION('',(-2.2E-16,9.753532008526E-17,-1.));
#999 = ADVANCED_FACE('',(#1000),#1037,.T.);
#1000 = FACE_BOUND('',#1001,.F.);
#1001 = EDGE_LOOP('',(#1002,#1010,#1018,#1027,#1034,#1035,#1036));
#1002 = ORIENTED_EDGE('',*,*,#1003,.F.);
#1003 = EDGE_CURVE('',#1004,#385,#1006,.T.);
#1004 = VERTEX_POINT('',#1005);
#1005 = CARTESIAN_POINT('',(60.3,112.7,70.8));
#1006 = LINE('',#1007,#1008);
#1007 = CARTESIAN_POINT('',(61.3,112.7,70.8));
#1008 = VECTOR('',#1009,1.);
#1009 = DIRECTION('',(-1.,0.,0.));
#1010 = ORIENTED_EDGE('',*,*,#1011,.T.);
#1011 = EDGE_CURVE('',#1004,#1012,#1014,.T.);
#1012 = VERTEX_POINT('',#1013);
#1013 = CARTESIAN_POINT('',(60.3,115.73508893593,70.8));
#1014 = LINE('',#1015,#1016);
#1015 = CARTESIAN_POINT('',(60.3,115.65,70.8));
#1016 = VECTOR('',#1017,1.);
#1017 = DIRECTION('',(-0.,1.,9.753532008526E-17));
#1018 = ORIENTED_EDGE('',*,*,#1019,.T.);
#1019 = EDGE_CURVE('',#1012,#1020,#1022,.T.);
#1020 = VERTEX_POINT('',#1021);
#1021 = CARTESIAN_POINT('',(59.9,117.,70.8));
#1022 = CIRCLE('',#1023,2.2);
#1023 = AXIS2_PLACEMENT_3D('',#1024,#1025,#1026);
#1024 = CARTESIAN_POINT('',(62.1,117.,70.8));
#1025 = DIRECTION('',(0.,-1.224646799147E-16,-1.));
#1026 = DIRECTION('',(-1.,-0.,0.));
#1027 = ORIENTED_EDGE('',*,*,#1028,.T.);
#1028 = EDGE_CURVE('',#1020,#175,#1029,.T.);
#1029 = CIRCLE('',#1030,2.2);
#1030 = AXIS2_PLACEMENT_3D('',#1031,#1032,#1033);
#1031 = CARTESIAN_POINT('',(62.1,117.,70.8));
#1032 = DIRECTION('',(0.,-1.224646799147E-16,-1.));
#1033 = DIRECTION('',(-1.,-0.,0.));
#1034 = ORIENTED_EDGE('',*,*,#182,.T.);
#1035 = ORIENTED_EDGE('',*,*,#989,.T.);
#1036 = ORIENTED_EDGE('',*,*,#392,.T.);
#1037 = PLANE('',#1038);
#1038 = AXIS2_PLACEMENT_3D('',#1039,#1040,#1041);
#1039 = CARTESIAN_POINT('',(61.3,121.3,70.8));
#1040 = DIRECTION('',(0.,9.753532008526E-17,-1.));
#1041 = DIRECTION('',(-4.4E-16,1.,9.753532008526E-17));
#1042 = ADVANCED_FACE('',(#1043),#1056,.F.);
#1043 = FACE_BOUND('',#1044,.F.);
#1044 = EDGE_LOOP('',(#1045,#1046,#1052,#1053,#1054,#1055));
#1045 = ORIENTED_EDGE('',*,*,#1019,.F.);
#1046 = ORIENTED_EDGE('',*,*,#1047,.T.);
#1047 = EDGE_CURVE('',#1012,#669,#1048,.T.);
#1048 = LINE('',#1049,#1050);
#1049 = CARTESIAN_POINT('',(60.3,115.73508893593,78.));
#1050 = VECTOR('',#1051,1.);
#1051 = DIRECTION('',(0.,1.224646799147E-16,1.));
#1052 = ORIENTED_EDGE('',*,*,#676,.T.);
#1053 = ORIENTED_EDGE('',*,*,#685,.T.);
#1054 = ORIENTED_EDGE('',*,*,#174,.F.);
#1055 = ORIENTED_EDGE('',*,*,#1028,.F.);
#1056 = CYLINDRICAL_SURFACE('',#1057,2.2);
#1057 = AXIS2_PLACEMENT_3D('',#1058,#1059,#1060);
#1058 = CARTESIAN_POINT('',(62.1,117.,78.));
#1059 = DIRECTION('',(0.,1.224646799147E-16,1.));
#1060 = DIRECTION('',(-1.,0.,-0.));
#1061 = ADVANCED_FACE('',(#1062),#1073,.F.);
#1062 = FACE_BOUND('',#1063,.T.);
#1063 = EDGE_LOOP('',(#1064,#1065,#1071,#1072));
#1064 = ORIENTED_EDGE('',*,*,#639,.F.);
#1065 = ORIENTED_EDGE('',*,*,#1066,.T.);
#1066 = EDGE_CURVE('',#632,#549,#1067,.T.);
#1067 = LINE('',#1068,#1069);
#1068 = CARTESIAN_POINT('',(60.3,124.,73.));
#1069 = VECTOR('',#1070,1.);
#1070 = DIRECTION('',(0.,-1.224646799147E-16,-1.));
#1071 = ORIENTED_EDGE('',*,*,#556,.T.);
#1072 = ORIENTED_EDGE('',*,*,#358,.F.);
#1073 = PLANE('',#1074);
#1074 = AXIS2_PLACEMENT_3D('',#1075,#1076,#1077);
#1075 = CARTESIAN_POINT('',(60.3,124.,73.));
#1076 = DIRECTION('',(0.,-1.,1.224646799147E-16));
#1077 = DIRECTION('',(1.,0.,0.));
#1078 = ADVANCED_FACE('',(#1079),#1090,.F.);
#1079 = FACE_BOUND('',#1080,.T.);
#1080 = EDGE_LOOP('',(#1081,#1082,#1083,#1089));
#1081 = ORIENTED_EDGE('',*,*,#342,.T.);
#1082 = ORIENTED_EDGE('',*,*,#563,.T.);
#1083 = ORIENTED_EDGE('',*,*,#1084,.F.);
#1084 = EDGE_CURVE('',#661,#564,#1085,.T.);
#1085 = LINE('',#1086,#1087);
#1086 = CARTESIAN_POINT('',(60.3,110.,73.));
#1087 = VECTOR('',#1088,1.);
#1088 = DIRECTION('',(0.,-1.224646799147E-16,-1.));
#1089 = ORIENTED_EDGE('',*,*,#660,.F.);
#1090 = PLANE('',#1091);
#1091 = AXIS2_PLACEMENT_3D('',#1092,#1093,#1094);
#1092 = CARTESIAN_POINT('',(56.3,110.,73.));
#1093 = DIRECTION('',(-0.,1.,-1.224646799147E-16));
#1094 = DIRECTION('',(-1.,0.,0.));
#1095 = ADVANCED_FACE('',(#1096),#1107,.T.);
#1096 = FACE_BOUND('',#1097,.F.);
#1097 = EDGE_LOOP('',(#1098,#1104,#1105,#1106));
#1098 = ORIENTED_EDGE('',*,*,#1099,.T.);
#1099 = EDGE_CURVE('',#964,#1004,#1100,.T.);
#1100 = LINE('',#1101,#1102);
#1101 = CARTESIAN_POINT('',(60.3,112.7,71.9));
#1102 = VECTOR('',#1103,1.);
#1103 = DIRECTION('',(0.,-9.753532008526E-17,1.));
#1104 = ORIENTED_EDGE('',*,*,#1003,.T.);
#1105 = ORIENTED_EDGE('',*,*,#384,.T.);
#1106 = ORIENTED_EDGE('',*,*,#971,.F.);
#1107 = PLANE('',#1108);
#1108 = AXIS2_PLACEMENT_3D('',#1109,#1110,#1111);
#1109 = CARTESIAN_POINT('',(61.3,112.7,70.8));
#1110 = DIRECTION('',(-0.,1.,9.753532008526E-17));
#1111 = DIRECTION('',(2.2E-16,-9.753532008526E-17,1.));
#1112 = ADVANCED_FACE('',(#1113),#1124,.T.);
#1113 = FACE_BOUND('',#1114,.F.);
#1114 = EDGE_LOOP('',(#1115,#1121,#1122,#1123));
#1115 = ORIENTED_EDGE('',*,*,#1116,.T.);
#1116 = EDGE_CURVE('',#745,#785,#1117,.T.);
#1117 = LINE('',#1118,#1119);
#1118 = CARTESIAN_POINT('',(60.3,112.7,59.9));
#1119 = VECTOR('',#1120,1.);
#1120 = DIRECTION('',(0.,-9.753532008526E-17,1.));
#1121 = ORIENTED_EDGE('',*,*,#784,.T.);
#1122 = ORIENTED_EDGE('',*,*,#418,.T.);
#1123 = ORIENTED_EDGE('',*,*,#752,.F.);
#1124 = PLANE('',#1125);
#1125 = AXIS2_PLACEMENT_3D('',#1126,#1127,#1128);
#1126 = CARTESIAN_POINT('',(61.3,112.7,46.8));
#1127 = DIRECTION('',(-0.,1.,9.753532008526E-17));
#1128 = DIRECTION('',(2.2E-16,-9.753532008526E-17,1.));
#1129 = ADVANCED_FACE('',(#1130),#1149,.T.);
#1130 = FACE_BOUND('',#1131,.F.);
#1131 = EDGE_LOOP('',(#1132,#1133,#1141,#1147,#1148));
#1132 = ORIENTED_EDGE('',*,*,#836,.F.);
#1133 = ORIENTED_EDGE('',*,*,#1134,.T.);
#1134 = EDGE_CURVE('',#829,#1135,#1137,.T.);
#1135 = VERTEX_POINT('',#1136);
#1136 = CARTESIAN_POINT('',(60.3,114.,56.));
#1137 = LINE('',#1138,#1139);
#1138 = CARTESIAN_POINT('',(60.3,109.2,62.4));
#1139 = VECTOR('',#1140,1.);
#1140 = DIRECTION('',(0.,-0.6,0.8));
#1141 = ORIENTED_EDGE('',*,*,#1142,.T.);
#1142 = EDGE_CURVE('',#1135,#445,#1143,.T.);
#1143 = LINE('',#1144,#1145);
#1144 = CARTESIAN_POINT('',(61.3,114.,56.));
#1145 = VECTOR('',#1146,1.);
#1146 = DIRECTION('',(-1.,0.,0.));
#1147 = ORIENTED_EDGE('',*,*,#444,.T.);
#1148 = ORIENTED_EDGE('',*,*,#870,.F.);
#1149 = PLANE('',#1150);
#1150 = AXIS2_PLACEMENT_3D('',#1151,#1152,#1153);
#1151 = CARTESIAN_POINT('',(61.3,114.,56.));
#1152 = DIRECTION('',(-0.,0.8,0.6));
#1153 = DIRECTION('',(4.4E-16,-0.6,0.8));
#1154 = ADVANCED_FACE('',(#1155),#1167,.T.);
#1155 = FACE_BOUND('',#1156,.F.);
#1156 = EDGE_LOOP('',(#1157,#1158,#1164,#1165,#1166));
#1157 = ORIENTED_EDGE('',*,*,#1142,.F.);
#1158 = ORIENTED_EDGE('',*,*,#1159,.T.);
#1159 = EDGE_CURVE('',#1135,#912,#1160,.T.);
#1160 = LINE('',#1161,#1162);
#1161 = CARTESIAN_POINT('',(60.3,118.86,62.48));
#1162 = VECTOR('',#1163,1.);
#1163 = DIRECTION('',(-0.,0.6,0.8));
#1164 = ORIENTED_EDGE('',*,*,#911,.F.);
#1165 = ORIENTED_EDGE('',*,*,#897,.T.);
#1166 = ORIENTED_EDGE('',*,*,#452,.T.);
#1167 = PLANE('',#1168);
#1168 = AXIS2_PLACEMENT_3D('',#1169,#1170,#1171);
#1169 = CARTESIAN_POINT('',(61.3,117.,60.));
#1170 = DIRECTION('',(0.,0.8,-0.6));
#1171 = DIRECTION('',(-9.E-17,0.6,0.8));
#1172 = ADVANCED_FACE('',(#1173),#1179,.F.);
#1173 = FACE_BOUND('',#1174,.T.);
#1174 = EDGE_LOOP('',(#1175,#1176,#1177,#1178));
#1175 = ORIENTED_EDGE('',*,*,#1066,.F.);
#1176 = ORIENTED_EDGE('',*,*,#631,.F.);
#1177 = ORIENTED_EDGE('',*,*,#607,.F.);
#1178 = ORIENTED_EDGE('',*,*,#548,.T.);
#1179 = PLANE('',#1180);
#1180 = AXIS2_PLACEMENT_3D('',#1181,#1182,#1183);
#1181 = CARTESIAN_POINT('',(60.3,110.,73.));
#1182 = DIRECTION('',(-1.,0.,0.));
#1183 = DIRECTION('',(0.,-1.,1.224646799147E-16));
#1184 = ADVANCED_FACE('',(#1185),#1202,.F.);
#1185 = FACE_BOUND('',#1186,.T.);
#1186 = EDGE_LOOP('',(#1187,#1188,#1189,#1190,#1191,#1192,#1193,#1194,
    #1195,#1196,#1197,#1198,#1199,#1200,#1201));
#1187 = ORIENTED_EDGE('',*,*,#668,.F.);
#1188 = ORIENTED_EDGE('',*,*,#1084,.T.);
#1189 = ORIENTED_EDGE('',*,*,#571,.T.);
#1190 = ORIENTED_EDGE('',*,*,#701,.T.);
#1191 = ORIENTED_EDGE('',*,*,#744,.T.);
#1192 = ORIENTED_EDGE('',*,*,#1116,.T.);
#1193 = ORIENTED_EDGE('',*,*,#792,.T.);
#1194 = ORIENTED_EDGE('',*,*,#828,.T.);
#1195 = ORIENTED_EDGE('',*,*,#1134,.T.);
#1196 = ORIENTED_EDGE('',*,*,#1159,.T.);
#1197 = ORIENTED_EDGE('',*,*,#920,.T.);
#1198 = ORIENTED_EDGE('',*,*,#963,.T.);
#1199 = ORIENTED_EDGE('',*,*,#1099,.T.);
#1200 = ORIENTED_EDGE('',*,*,#1011,.T.);
#1201 = ORIENTED_EDGE('',*,*,#1047,.T.);
#1202 = PLANE('',#1203);
#1203 = AXIS2_PLACEMENT_3D('',#1204,#1205,#1206);
#1204 = CARTESIAN_POINT('',(60.3,110.,73.));
#1205 = DIRECTION('',(-1.,0.,0.));
#1206 = DIRECTION('',(0.,-1.,1.224646799147E-16));
#1207 = ( GEOMETRIC_REPRESENTATION_CONTEXT(3) 
GLOBAL_UNCERTAINTY_ASSIGNED_CONTEXT((#1211)) 
GLOBAL_UNIT_ASSIGNED_CONTEXT((#1208,#1209,#1210)) REPRESENTATION_CONTEXT
('Context #1','3D Context with UNIT and UNCERTAINTY') );
#1208 = ( LENGTH_UNIT() NAMED_UNIT(*) SI_UNIT(.MILLI.,.METRE.) );
#1209 = ( NAMED_UNIT(*) PLANE_ANGLE_UNIT() SI_UNIT($,.RADIAN.) );
#1210 = ( NAMED_UNIT(*) SI_UNIT($,.STERADIAN.) SOLID_ANGLE_UNIT() );
#1211 = UNCERTAINTY_MEASURE_WITH_UNIT(LENGTH_MEASURE(2.E-05),#1208,
  'distance_accuracy_value','confusion accuracy');
#1212 = PRODUCT_RELATED_PRODUCT_CATEGORY('part',$,(#7));
ENDSEC;
END-ISO-10303-21;
